<?xml version="1.0" encoding="UTF-8"?>
<!DOCTYPE svg PUBLIC "-//W3C//DTD SVG 1.1//EN" "http://www.w3.org/Graphics/SVG/1.1/DTD/svg11.dtd">
<svg xmlns="http://www.w3.org/2000/svg" version="1.1" width="150px" height="150px" style="shape-rendering:geometricPrecision; text-rendering:geometricPrecision; image-rendering:optimizeQuality; fill-rule:evenodd; clip-rule:evenodd" xmlns:xlink="http://www.w3.org/1999/xlink">
<g><path style="opacity:0.332" fill="#eaf1f5" d="M 60.5,17.5 C 59.0813,18.4511 57.4147,18.7845 55.5,18.5C 53.901,18.7678 52.5676,18.4345 51.5,17.5C 54.612,16.9221 57.612,16.9221 60.5,17.5 Z"/></g>
<g><path style="opacity:0.72" fill="#c9ddf0" d="M 48.5,17.5 C 49.5,17.5 50.5,17.5 51.5,17.5C 52.5676,18.4345 53.901,18.7678 55.5,18.5C 55.9175,19.2216 56.5842,19.7216 57.5,20C 56.8333,20.3333 56.1667,20.6667 55.5,21C 52.3054,21.1805 49.3054,21.6805 46.5,22.5C 45.5,22.5 44.5,22.5 43.5,22.5C 40.1667,22.8333 36.8333,23.1667 33.5,23.5C 33.5,23.1667 33.5,22.8333 33.5,22.5C 35.153,22.3404 36.4863,21.6737 37.5,20.5C 37.8333,20.5 38.1667,20.5 38.5,20.5C 41.5184,20.6646 44.5184,20.498 47.5,20C 48.2524,19.3292 48.5858,18.4959 48.5,17.5 Z"/></g>
<g><path style="opacity:0.188" fill="#f1f9fc" d="M 78.5,17.5 C 78.3893,18.1174 78.056,18.6174 77.5,19C 75.1902,19.4966 72.8568,19.6633 70.5,19.5C 73.003,18.6295 75.6697,17.9628 78.5,17.5 Z"/></g>
<g><path style="opacity:0.996" fill="#cedaf3" d="M 90.5,18.5 C 91.1667,19.5 91.8333,20.5 92.5,21.5C 92.5,22.8333 91.8333,23.5 90.5,23.5C 88.5,23.5 86.5,23.5 84.5,23.5C 84.5,24.5 84.5,25.5 84.5,26.5C 83.5,26.1667 82.8333,25.5 82.5,24.5C 82.1667,23.8333 81.8333,23.1667 81.5,22.5C 84.5719,22.8174 87.5719,22.4841 90.5,21.5C 86.6631,19.2855 82.6631,18.9522 78.5,20.5C 78.6107,19.8826 78.944,19.3826 79.5,19C 83.1516,18.5014 86.8183,18.3347 90.5,18.5 Z"/></g>
<g><path style="opacity:0.09" fill="#e8eef5" d="M 80.5,17.5 C 88.1319,16.6741 95.7985,16.6741 103.5,17.5C 110.288,19.3787 115.288,23.3787 118.5,29.5C 116.167,27.5 113.833,25.5 111.5,23.5C 109.621,22.6586 107.621,22.3253 105.5,22.5C 105.119,21.0689 104.119,20.2355 102.5,20C 98.4724,19.6082 94.4724,19.1082 90.5,18.5C 87.3752,17.5206 84.0419,17.1872 80.5,17.5 Z"/></g>
<g><path style="opacity:0.247" fill="#ecf4f9" d="M 48.5,17.5 C 48.5858,18.4959 48.2524,19.3292 47.5,20C 44.5184,20.498 41.5184,20.6646 38.5,20.5C 41.7953,19.716 45.1286,18.716 48.5,17.5 Z"/></g>
<g><path style="opacity:0.429" fill="#dae3f1" d="M 78.5,17.5 C 79.1667,17.5 79.8333,17.5 80.5,17.5C 84.0419,17.1872 87.3752,17.5206 90.5,18.5C 86.8183,18.3347 83.1516,18.5014 79.5,19C 78.944,19.3826 78.6107,19.8826 78.5,20.5C 77.8333,20.5 77.1667,20.5 76.5,20.5C 71.4725,20.5029 66.4725,20.8363 61.5,21.5C 61.5,20.5 61.5,19.5 61.5,18.5C 64.4299,19.299 67.4299,19.6323 70.5,19.5C 72.8568,19.6633 75.1902,19.4966 77.5,19C 78.056,18.6174 78.3893,18.1174 78.5,17.5 Z"/></g>
<g><path style="opacity:0.994" fill="#dae1f6" d="M 90.5,18.5 C 94.4724,19.1082 98.4724,19.6082 102.5,20C 104.119,20.2355 105.119,21.0689 105.5,22.5C 104.391,22.4431 103.391,22.1098 102.5,21.5C 100.833,21.5 99.1667,21.5 97.5,21.5C 95.8333,21.5 94.1667,21.5 92.5,21.5C 91.8333,20.5 91.1667,19.5 90.5,18.5 Z"/></g>
<g><path style="opacity:1" fill="#bcceed" d="M 81.5,22.5 C 79.9731,22.573 78.9731,21.9063 78.5,20.5C 82.6631,18.9522 86.6631,19.2855 90.5,21.5C 87.5719,22.4841 84.5719,22.8174 81.5,22.5 Z"/></g>
<g><path style="opacity:0.737" fill="#e7f0f8" d="M 37.5,20.5 C 36.4863,21.6737 35.153,22.3404 33.5,22.5C 32.8333,22.5 32.1667,22.5 31.5,22.5C 33.1016,20.9261 35.1016,20.2594 37.5,20.5 Z"/></g>
<g><path style="opacity:1" fill="#d8e1f6" d="M 60.5,17.5 C 61.1667,17.5 61.5,17.8333 61.5,18.5C 61.5,19.5 61.5,20.5 61.5,21.5C 66.4725,20.8363 71.4725,20.5029 76.5,20.5C 76.1667,21.5 75.5,22.1667 74.5,22.5C 70.1539,22.3343 65.8206,22.501 61.5,23C 60.2625,23.2321 59.2625,23.7321 58.5,24.5C 55.4824,24.7038 52.4824,25.0371 49.5,25.5C 48.8333,24.1667 47.8333,23.1667 46.5,22.5C 49.3054,21.6805 52.3054,21.1805 55.5,21C 56.1667,20.6667 56.8333,20.3333 57.5,20C 56.5842,19.7216 55.9175,19.2216 55.5,18.5C 57.4147,18.7845 59.0813,18.4511 60.5,17.5 Z"/></g>
<g><path style="opacity:1" fill="#d2daf4" d="M 92.5,21.5 C 94.1667,21.5 95.8333,21.5 97.5,21.5C 96.3572,23.1007 97.0239,23.7674 99.5,23.5C 101.03,23.3601 102.03,22.6935 102.5,21.5C 103.391,22.1098 104.391,22.4431 105.5,22.5C 107.621,22.3253 109.621,22.6586 111.5,23.5C 112.5,25.5 113.5,27.5 114.5,29.5C 112.521,28.1879 110.855,26.5212 109.5,24.5C 108.313,23.3473 107.313,23.3473 106.5,24.5C 105.167,24.5 103.833,24.5 102.5,24.5C 98.2984,24.8168 94.2984,24.4834 90.5,23.5C 91.8333,23.5 92.5,22.8333 92.5,21.5 Z"/></g>
<g><path style="opacity:1" fill="#c8cced" d="M 97.5,21.5 C 99.1667,21.5 100.833,21.5 102.5,21.5C 102.03,22.6935 101.03,23.3601 99.5,23.5C 97.0239,23.7674 96.3572,23.1007 97.5,21.5 Z"/></g>
<g><path style="opacity:1" fill="#e1dffa" d="M 74.5,22.5 C 77.1534,26.2061 76.1534,28.5395 71.5,29.5C 71.1667,29.5 70.8333,29.5 70.5,29.5C 70.5299,28.5028 70.0299,27.8361 69,27.5C 67.9889,28.0556 67.1556,28.7222 66.5,29.5C 66.5,28.1667 66.5,26.8333 66.5,25.5C 63.8333,25.1667 61.1667,24.8333 58.5,24.5C 59.2625,23.7321 60.2625,23.2321 61.5,23C 65.8206,22.501 70.1539,22.3343 74.5,22.5 Z"/></g>
<g><path style="opacity:1" fill="#bdd1f0" d="M 43.5,22.5 C 44.5,22.5 45.5,22.5 46.5,22.5C 47.8333,23.1667 48.8333,24.1667 49.5,25.5C 51.2516,27.2459 52.5849,29.2459 53.5,31.5C 51.8514,30.286 50.1848,28.9527 48.5,27.5C 47.5481,29.0453 47.2148,30.712 47.5,32.5C 45.9172,30.3374 44.5839,28.0041 43.5,25.5C 43.5,24.5 43.5,23.5 43.5,22.5 Z"/></g>
<g><path style="opacity:1" fill="#d7d6f2" d="M 58.5,24.5 C 61.1667,24.8333 63.8333,25.1667 66.5,25.5C 66.5,26.8333 66.5,28.1667 66.5,29.5C 65.5084,29.3284 64.8417,29.6618 64.5,30.5C 59.8321,31.1606 57.8321,29.1606 58.5,24.5 Z"/></g>
<g><path style="opacity:1" fill="#bcc9e7" d="M 82.5,24.5 C 82.8333,25.5 83.5,26.1667 84.5,26.5C 84.44,27.0431 84.1067,27.3764 83.5,27.5C 82.1401,26.8201 80.8068,26.1534 79.5,25.5C 78.7109,25.2172 78.0442,24.7172 77.5,24C 79.1966,23.6155 80.8632,23.7822 82.5,24.5 Z"/></g>
<g><path style="opacity:1" fill="#dce8fa" d="M 90.5,23.5 C 94.2984,24.4834 98.2984,24.8168 102.5,24.5C 104.9,26.2964 106.567,28.6298 107.5,31.5C 101.471,30.0959 95.4709,29.0959 89.5,28.5C 94.1785,28.6658 98.8452,28.4992 103.5,28C 98.1083,25.6315 92.4416,24.9649 86.5,26C 87.3805,26.7083 88.0472,27.5416 88.5,28.5C 88.1667,28.5 87.8333,28.5 87.5,28.5C 86.5,27.8333 85.5,27.1667 84.5,26.5C 84.5,25.5 84.5,24.5 84.5,23.5C 86.5,23.5 88.5,23.5 90.5,23.5 Z"/></g>
<g><path style="opacity:1" fill="#dfeefa" d="M 89.5,28.5 C 89.1667,28.5 88.8333,28.5 88.5,28.5C 88.0472,27.5416 87.3805,26.7083 86.5,26C 92.4416,24.9649 98.1083,25.6315 103.5,28C 98.8452,28.4992 94.1785,28.6658 89.5,28.5 Z"/></g>
<g><path style="opacity:1" fill="#c4d1f1" d="M 43.5,22.5 C 43.5,23.5 43.5,24.5 43.5,25.5C 42.0695,25.4208 40.7362,25.7542 39.5,26.5C 38.7055,28.4951 38.0388,30.4951 37.5,32.5C 36.9264,33.5281 36.593,34.5281 36.5,35.5C 35.5713,34.3112 35.238,32.9778 35.5,31.5C 35.8495,28.9552 35.0162,26.9552 33,25.5C 32.8138,28.0356 32.3138,30.369 31.5,32.5C 31.5,30.1667 31.5,27.8333 31.5,25.5C 31.8333,24.5 32.5,23.8333 33.5,23.5C 36.8333,23.1667 40.1667,22.8333 43.5,22.5 Z"/></g>
<g><path style="opacity:1" fill="#dae1f7" d="M 102.5,24.5 C 103.833,24.5 105.167,24.5 106.5,24.5C 110.167,27.5 113.5,30.8333 116.5,34.5C 117.354,36.035 117.354,37.3684 116.5,38.5C 114.527,35.2027 111.86,33.536 108.5,33.5C 108.167,32.8333 107.833,32.1667 107.5,31.5C 106.567,28.6298 104.9,26.2964 102.5,24.5 Z"/></g>
<g><path style="opacity:0.09" fill="#e9eff7" d="M 31.5,22.5 C 29.8729,24.6298 28.0396,26.6298 26,28.5C 25.5172,29.448 25.3505,30.448 25.5,31.5C 24.8333,32.5 24.1667,33.5 23.5,34.5C 21.9382,34.7329 20.6049,35.3995 19.5,36.5C 21.8713,33.9332 23.7046,30.9332 25,27.5C 26.7772,25.2101 28.9438,23.5434 31.5,22.5 Z"/></g>
<g><path style="opacity:0.988" fill="#cdd5e9" d="M 31.5,22.5 C 32.1667,22.5 32.8333,22.5 33.5,22.5C 33.5,22.8333 33.5,23.1667 33.5,23.5C 32.5,23.8333 31.8333,24.5 31.5,25.5C 30.1667,26.1667 29.1667,27.1667 28.5,28.5C 27.2719,29.3065 26.2719,30.3065 25.5,31.5C 25.3505,30.448 25.5172,29.448 26,28.5C 28.0396,26.6298 29.8729,24.6298 31.5,22.5 Z"/></g>
<g><path style="opacity:1" fill="#c8cdf0" d="M 31.5,25.5 C 31.5,27.8333 31.5,30.1667 31.5,32.5C 31.1667,33.1667 30.8333,33.8333 30.5,34.5C 28.8583,35.8675 27.1916,36.2008 25.5,35.5C 26.7878,33.2612 27.7878,30.9279 28.5,28.5C 29.1667,27.1667 30.1667,26.1667 31.5,25.5 Z"/></g>
<g><path style="opacity:1" fill="#dddbf8" d="M 58.5,24.5 C 57.8321,29.1606 59.8321,31.1606 64.5,30.5C 64.7163,32.6807 63.883,34.3474 62,35.5C 61.5172,34.552 61.3505,33.552 61.5,32.5C 60.1779,32.67 59.0113,32.3366 58,31.5C 57.7679,32.7375 57.2679,33.7375 56.5,34.5C 55.8333,33.1667 54.8333,32.1667 53.5,31.5C 52.5849,29.2459 51.2516,27.2459 49.5,25.5C 52.4824,25.0371 55.4824,24.7038 58.5,24.5 Z"/></g>
<g><path style="opacity:1" fill="#b4caef" d="M 78.5,27.5 C 83.173,31.0115 87.673,34.6781 92,38.5C 92.1667,38.8333 92.3333,39.1667 92.5,39.5C 90.7086,40.1698 89.0419,40.8365 87.5,41.5C 85.9731,41.427 84.9731,42.0937 84.5,43.5C 83.5,43.5 82.5,43.5 81.5,43.5C 81.3893,42.8826 81.056,42.3826 80.5,42C 81.9561,41.5774 82.4561,40.7441 82,39.5C 80.7365,37.393 78.9032,36.393 76.5,36.5C 75.9455,32.9878 76.6122,29.9878 78.5,27.5 Z"/></g>
<g><path style="opacity:1" fill="#c6d5f5" d="M 79.5,25.5 C 80.8068,26.1534 82.1401,26.8201 83.5,27.5C 84.1067,27.3764 84.44,27.0431 84.5,26.5C 85.5,27.1667 86.5,27.8333 87.5,28.5C 89.1696,31.0016 91.3363,33.0016 94,34.5C 94.6077,36.1545 95.1077,37.8211 95.5,39.5C 95.5,41.5 94.5,42.5 92.5,42.5C 91.5,42.5 90.5,42.5 89.5,42.5C 89.1583,41.6618 88.4916,41.3284 87.5,41.5C 89.0419,40.8365 90.7086,40.1698 92.5,39.5C 92.3333,39.1667 92.1667,38.8333 92,38.5C 87.673,34.6781 83.173,31.0115 78.5,27.5C 79.3382,27.1583 79.6716,26.4916 79.5,25.5 Z"/></g>
<g><path style="opacity:1" fill="#dbe3f9" d="M 87.5,28.5 C 87.8333,28.5 88.1667,28.5 88.5,28.5C 88.8333,28.5 89.1667,28.5 89.5,28.5C 95.4709,29.0959 101.471,30.0959 107.5,31.5C 107.833,32.1667 108.167,32.8333 108.5,33.5C 106.77,34.0256 105.436,35.0256 104.5,36.5C 101.99,36.0535 99.9899,36.7202 98.5,38.5C 97.0755,36.9689 96.4088,37.3023 96.5,39.5C 96.1667,39.5 95.8333,39.5 95.5,39.5C 95.1077,37.8211 94.6077,36.1545 94,34.5C 91.3363,33.0016 89.1696,31.0016 87.5,28.5 Z"/></g>
<g><path style="opacity:1" fill="#b3c4e5" d="M 43.5,33.5 C 43.1667,34.1667 42.8333,34.8333 42.5,35.5C 41.8333,35.5 41.5,35.8333 41.5,36.5C 40.8333,36.5 40.5,36.1667 40.5,35.5C 40.8567,33.4109 41.5233,31.4109 42.5,29.5C 44.6424,30.4371 44.9757,31.7704 43.5,33.5 Z"/></g>
<g><path style="opacity:1" fill="#b5daf4" d="M 53.5,31.5 C 54.562,33.2341 54.562,34.9008 53.5,36.5C 52.2719,37.3065 51.2719,38.3065 50.5,39.5C 49.0427,37.3718 48.0427,35.0384 47.5,32.5C 47.2148,30.712 47.5481,29.0453 48.5,27.5C 50.1848,28.9527 51.8514,30.286 53.5,31.5 Z"/></g>
<g><path style="opacity:0.949" fill="#d1e2f4" d="M 111.5,23.5 C 113.833,25.5 116.167,27.5 118.5,29.5C 119.811,32.1354 121.478,34.4687 123.5,36.5C 122.833,36.5 122.167,36.5 121.5,36.5C 119.5,33.8333 117.167,31.5 114.5,29.5C 113.5,27.5 112.5,25.5 111.5,23.5 Z"/></g>
<g><path style="opacity:1" fill="#cadbf4" d="M 70.5,29.5 C 70.6795,31.9541 70.0128,34.1208 68.5,36C 68.8361,37.0299 69.5028,37.5299 70.5,37.5C 70.5,38.1667 70.5,38.8333 70.5,39.5C 69.5,39.5 68.5,39.5 67.5,39.5C 66.6554,38.3285 65.9887,36.9952 65.5,35.5C 65.3253,33.3792 65.6586,31.3792 66.5,29.5C 67.1556,28.7222 67.9889,28.0556 69,27.5C 70.0299,27.8361 70.5299,28.5028 70.5,29.5 Z"/></g>
<g><path style="opacity:1" fill="#b1bcdc" d="M 70.5,29.5 C 70.8333,29.5 71.1667,29.5 71.5,29.5C 72.3764,29.3691 73.0431,29.7025 73.5,30.5C 72.8728,31.4168 72.5394,32.4168 72.5,33.5C 71.6618,33.8417 71.3284,34.5084 71.5,35.5C 70.6618,35.8417 70.3284,36.5084 70.5,37.5C 69.5028,37.5299 68.8361,37.0299 68.5,36C 70.0128,34.1208 70.6795,31.9541 70.5,29.5 Z"/></g>
<g><path style="opacity:1" fill="#b9d7f1" d="M 35.5,31.5 C 34.3263,32.5137 33.6596,33.847 33.5,35.5C 32.5416,35.9528 31.7083,36.6195 31,37.5C 30.5172,36.552 30.3505,35.552 30.5,34.5C 30.8333,33.8333 31.1667,33.1667 31.5,32.5C 32.3138,30.369 32.8138,28.0356 33,25.5C 35.0162,26.9552 35.8495,28.9552 35.5,31.5 Z"/></g>
<g><path style="opacity:1" fill="#b6c9e6" d="M 106.5,24.5 C 107.313,23.3473 108.313,23.3473 109.5,24.5C 110.855,26.5212 112.521,28.1879 114.5,29.5C 117.167,31.5 119.5,33.8333 121.5,36.5C 121.833,37.1667 122.167,37.8333 122.5,38.5C 121.833,38.5 121.5,38.8333 121.5,39.5C 120.194,37.5273 118.527,35.8606 116.5,34.5C 113.5,30.8333 110.167,27.5 106.5,24.5 Z"/></g>
<g><path style="opacity:0.412" fill="#e5edf5" d="M 118.5,29.5 C 121.784,31.117 124.451,33.4503 126.5,36.5C 125.5,36.5 124.5,36.5 123.5,36.5C 121.478,34.4687 119.811,32.1354 118.5,29.5 Z"/></g>
<g><path style="opacity:1" fill="#c1d3f0" d="M 35.5,31.5 C 35.238,32.9778 35.5713,34.3112 36.5,35.5C 36.593,34.5281 36.9264,33.5281 37.5,32.5C 37.8564,34.1898 38.8564,35.1898 40.5,35.5C 40.5,36.1667 40.8333,36.5 41.5,36.5C 41.3677,39.5701 41.701,42.5701 42.5,45.5C 42.8333,47.5 43.1667,49.5 43.5,51.5C 42.8333,51.5 42.5,51.8333 42.5,52.5C 41.8333,51.5 41.1667,50.5 40.5,49.5C 39.776,47.7816 39.1094,45.9483 38.5,44C 39.0219,43.4387 39.3552,42.772 39.5,42C 37.953,40.6238 36.6197,39.1238 35.5,37.5C 35.1667,37.5 34.8333,37.5 34.5,37.5C 34.6716,36.5084 34.3382,35.8417 33.5,35.5C 33.6596,33.847 34.3263,32.5137 35.5,31.5 Z"/></g>
<g><path style="opacity:1" fill="#e9eef8" d="M 43.5,33.5 C 45.5,33.5 46.5,34.5 46.5,36.5C 45.2921,35.7659 43.9587,35.4326 42.5,35.5C 42.8333,34.8333 43.1667,34.1667 43.5,33.5 Z"/></g>
<g><path style="opacity:1" fill="#dde5f9" d="M 108.5,33.5 C 108.937,35.0744 109.937,36.2411 111.5,37C 111.167,37.3333 110.833,37.6667 110.5,38C 112.503,40.0022 114.836,41.5022 117.5,42.5C 116.626,44.7466 116.292,47.0799 116.5,49.5C 118.179,49.2852 119.179,49.9519 119.5,51.5C 119.762,52.9778 119.429,54.3112 118.5,55.5C 116.506,52.8394 114.173,50.5061 111.5,48.5C 111.5,47.8333 111.167,47.5 110.5,47.5C 111.014,45.4884 111.18,43.4884 111,41.5C 110.29,40.0267 109.124,39.3601 107.5,39.5C 107.19,37.8564 106.19,36.8564 104.5,36.5C 105.436,35.0256 106.77,34.0256 108.5,33.5 Z"/></g>
<g><path style="opacity:1" fill="#c2ceee" d="M 28.5,28.5 C 27.7878,30.9279 26.7878,33.2612 25.5,35.5C 27.1916,36.2008 28.8583,35.8675 30.5,34.5C 30.3505,35.552 30.5172,36.552 31,37.5C 31.7083,36.6195 32.5416,35.9528 33.5,35.5C 34.3382,35.8417 34.6716,36.5084 34.5,37.5C 34.1298,40.267 32.7964,42.267 30.5,43.5C 29.2223,43.2178 28.2223,42.5511 27.5,41.5C 25.9555,39.195 23.9555,38.8617 21.5,40.5C 21.2525,38.1417 21.9192,36.1417 23.5,34.5C 24.1667,33.5 24.8333,32.5 25.5,31.5C 26.2719,30.3065 27.2719,29.3065 28.5,28.5 Z"/></g>
<g><path style="opacity:1" fill="#f5f9fc" d="M 42.5,35.5 C 43.9587,35.4326 45.2921,35.7659 46.5,36.5C 47.9205,39.2613 48.5871,42.2613 48.5,45.5C 48.5,46.1667 48.5,46.8333 48.5,47.5C 46.7773,49.78 46.1107,52.4467 46.5,55.5C 45.8333,54.5 45.1667,53.5 44.5,52.5C 44.5,52.1667 44.5,51.8333 44.5,51.5C 44.7406,49.1016 44.0739,47.1016 42.5,45.5C 41.701,42.5701 41.3677,39.5701 41.5,36.5C 41.5,35.8333 41.8333,35.5 42.5,35.5 Z"/></g>
<g><path style="opacity:1" fill="#a6cef2" d="M 82.5,33.5 C 84.3936,34.0476 86.0603,35.0476 87.5,36.5C 86.9234,38.5499 85.5901,39.5499 83.5,39.5C 83.1667,37.5 82.8333,35.5 82.5,33.5 Z"/></g>
<g><path style="opacity:1" fill="#c0cfed" d="M 65.5,35.5 C 65.9887,36.9952 66.6554,38.3285 67.5,39.5C 68.0779,42.388 68.0779,45.388 67.5,48.5C 66.6981,49.9516 66.1981,51.6183 66,53.5C 65.6667,50.8333 65.3333,48.1667 65,45.5C 64.5604,47.8659 64.0604,50.1992 63.5,52.5C 62.1054,54.0544 61.4387,53.721 61.5,51.5C 62.7258,47.5519 63.2258,43.5519 63,39.5C 61.2685,44.3504 60.2685,49.3504 60,54.5C 59.3292,53.7476 58.4959,53.4142 57.5,53.5C 57.5,52.8333 57.5,52.1667 57.5,51.5C 58.7251,50.8478 59.3917,49.6811 59.5,48C 60,44.5 60.5,41 61,37.5C 62.3297,36.4178 63.8297,35.7512 65.5,35.5 Z"/></g>
<g><path style="opacity:1" fill="#f2f4fb" d="M 71.5,39.5 C 71.1667,39.5 70.8333,39.5 70.5,39.5C 70.5,38.8333 70.5,38.1667 70.5,37.5C 70.3284,36.5084 70.6618,35.8417 71.5,35.5C 73.1237,33.8632 74.1237,34.1966 74.5,36.5C 74.1316,38.1753 73.1316,39.1753 71.5,39.5 Z"/></g>
<g><path style="opacity:1" fill="#dae9fa" d="M 116.5,38.5 C 118.232,41.2096 119.899,43.8763 121.5,46.5C 121.833,47.1667 122.167,47.8333 122.5,48.5C 121.449,49.2223 120.782,50.2223 120.5,51.5C 120.167,51.5 119.833,51.5 119.5,51.5C 119.179,49.9519 118.179,49.2852 116.5,49.5C 116.292,47.0799 116.626,44.7466 117.5,42.5C 114.836,41.5022 112.503,40.0022 110.5,38C 110.833,37.6667 111.167,37.3333 111.5,37C 109.937,36.2411 108.937,35.0744 108.5,33.5C 111.86,33.536 114.527,35.2027 116.5,38.5 Z"/></g>
<g><path style="opacity:1" fill="#cbd3f1" d="M 66.5,29.5 C 65.6586,31.3792 65.3253,33.3792 65.5,35.5C 63.8297,35.7512 62.3297,36.4178 61,37.5C 60.5,41 60,44.5 59.5,48C 59.3917,49.6811 58.7251,50.8478 57.5,51.5C 56.5931,45.8936 56.2598,40.227 56.5,34.5C 57.2679,33.7375 57.7679,32.7375 58,31.5C 59.0113,32.3366 60.1779,32.67 61.5,32.5C 61.3505,33.552 61.5172,34.552 62,35.5C 63.883,34.3474 64.7163,32.6807 64.5,30.5C 64.8417,29.6618 65.5084,29.3284 66.5,29.5 Z"/></g>
<g><path style="opacity:1" fill="#d9def7" d="M 116.5,34.5 C 118.527,35.8606 120.194,37.5273 121.5,39.5C 122.833,42.1667 124.167,44.8333 125.5,47.5C 124.518,46.8592 123.518,46.1925 122.5,45.5C 121.893,45.6236 121.56,45.9569 121.5,46.5C 119.899,43.8763 118.232,41.2096 116.5,38.5C 117.354,37.3684 117.354,36.035 116.5,34.5 Z"/></g>
<g><path style="opacity:1" fill="#bfd1f1" d="M 34.5,37.5 C 34.8333,37.5 35.1667,37.5 35.5,37.5C 36.0534,42.482 36.3867,47.482 36.5,52.5C 35.5,52.5 34.5,52.5 33.5,52.5C 31.6896,49.855 30.6896,46.855 30.5,43.5C 32.7964,42.267 34.1298,40.267 34.5,37.5 Z"/></g>
<g><path style="opacity:1" fill="#c5d8f1" d="M 43.5,25.5 C 44.5839,28.0041 45.9172,30.3374 47.5,32.5C 48.0427,35.0384 49.0427,37.3718 50.5,39.5C 49.8505,41.4352 49.5172,43.4352 49.5,45.5C 49.1667,45.5 48.8333,45.5 48.5,45.5C 48.5871,42.2613 47.9205,39.2613 46.5,36.5C 46.5,34.5 45.5,33.5 43.5,33.5C 44.9757,31.7704 44.6424,30.4371 42.5,29.5C 41.5233,31.4109 40.8567,33.4109 40.5,35.5C 38.8564,35.1898 37.8564,34.1898 37.5,32.5C 38.0388,30.4951 38.7055,28.4951 39.5,26.5C 40.7362,25.7542 42.0695,25.4208 43.5,25.5 Z"/></g>
<g><path style="opacity:1" fill="#dce1fa" d="M 71.5,39.5 C 73.1316,39.1753 74.1316,38.1753 74.5,36.5C 74.1237,34.1966 73.1237,33.8632 71.5,35.5C 71.3284,34.5084 71.6618,33.8417 72.5,33.5C 73.1499,33.1961 73.8165,32.8627 74.5,32.5C 75.48,35.0865 75.8134,37.7531 75.5,40.5C 73.901,40.7678 72.5676,40.4345 71.5,39.5 Z"/></g>
<g><path style="opacity:1" fill="#adc0e4" d="M 122.5,38.5 C 123.833,39.8333 125.167,41.1667 126.5,42.5C 127.124,44.754 128.457,46.4206 130.5,47.5C 131.219,49.7638 131.552,52.0971 131.5,54.5C 130.872,52.3384 129.539,50.6718 127.5,49.5C 127.5,48.8333 127.167,48.5 126.5,48.5C 126.5,47.8333 126.167,47.5 125.5,47.5C 124.167,44.8333 122.833,42.1667 121.5,39.5C 121.5,38.8333 121.833,38.5 122.5,38.5 Z"/></g>
<g><path style="opacity:0.978" fill="#c6dbf5" d="M 121.5,36.5 C 122.167,36.5 122.833,36.5 123.5,36.5C 125.972,37.6421 126.972,39.6421 126.5,42.5C 125.167,41.1667 123.833,39.8333 122.5,38.5C 122.167,37.8333 121.833,37.1667 121.5,36.5 Z"/></g>
<g><path style="opacity:0.637" fill="#dae5f5" d="M 123.5,36.5 C 124.5,36.5 125.5,36.5 126.5,36.5C 127.773,38.7128 128.773,41.0462 129.5,43.5C 129.833,44.8333 130.167,46.1667 130.5,47.5C 128.457,46.4206 127.124,44.754 126.5,42.5C 126.972,39.6421 125.972,37.6421 123.5,36.5 Z"/></g>
<g><path style="opacity:0.455" fill="#e2ecf5" d="M 19.5,36.5 C 19.9754,39.3126 18.9754,41.3126 16.5,42.5C 16.7549,40.0326 17.7549,38.0326 19.5,36.5 Z"/></g>
<g><path style="opacity:1" fill="#c2d6f0" d="M 27.5,41.5 C 23.7499,45.2671 23.7499,48.9337 27.5,52.5C 27.5,53.5 27.5,54.5 27.5,55.5C 25.9811,53.3863 23.9811,51.7197 21.5,50.5C 22.2458,49.2638 22.5792,47.9305 22.5,46.5C 22.2882,44.6159 21.2882,43.2826 19.5,42.5C 20.2427,41.8182 20.9094,41.1515 21.5,40.5C 23.9555,38.8617 25.9555,39.195 27.5,41.5 Z"/></g>
<g><path style="opacity:1" fill="#c5d6f5" d="M 76.5,20.5 C 77.1667,20.5 77.8333,20.5 78.5,20.5C 78.9731,21.9063 79.9731,22.573 81.5,22.5C 81.8333,23.1667 82.1667,23.8333 82.5,24.5C 80.8632,23.7822 79.1966,23.6155 77.5,24C 78.0442,24.7172 78.7109,25.2172 79.5,25.5C 79.6716,26.4916 79.3382,27.1583 78.5,27.5C 76.6122,29.9878 75.9455,32.9878 76.5,36.5C 78.9032,36.393 80.7365,37.393 82,39.5C 82.4561,40.7441 81.9561,41.5774 80.5,42C 81.056,42.3826 81.3893,42.8826 81.5,43.5C 81.5,43.8333 81.5,44.1667 81.5,44.5C 79.5742,43.7577 77.7409,42.7577 76,41.5C 75.2828,42.0442 74.7828,42.7109 74.5,43.5C 73.1411,44.0065 72.1411,45.0065 71.5,46.5C 70.5258,44.2573 70.1924,41.924 70.5,39.5C 70.8333,39.5 71.1667,39.5 71.5,39.5C 72.5676,40.4345 73.901,40.7678 75.5,40.5C 75.8134,37.7531 75.48,35.0865 74.5,32.5C 73.8165,32.8627 73.1499,33.1961 72.5,33.5C 72.5394,32.4168 72.8728,31.4168 73.5,30.5C 73.0431,29.7025 72.3764,29.3691 71.5,29.5C 76.1534,28.5395 77.1534,26.2061 74.5,22.5C 75.5,22.1667 76.1667,21.5 76.5,20.5 Z"/></g>
<g><path style="opacity:1" fill="#ebf3fa" d="M 98.5,38.5 C 100.252,40.2459 101.585,42.2459 102.5,44.5C 101.833,44.5 101.167,44.5 100.5,44.5C 99.396,42.6115 98.0627,40.9448 96.5,39.5C 96.4088,37.3023 97.0755,36.9689 98.5,38.5 Z"/></g>
<g><path style="opacity:1" fill="#c0def4" d="M 95.5,39.5 C 95.8333,39.5 96.1667,39.5 96.5,39.5C 98.0627,40.9448 99.396,42.6115 100.5,44.5C 100.5,44.8333 100.5,45.1667 100.5,45.5C 99.3951,44.3995 98.0618,43.7329 96.5,43.5C 95.0413,43.4326 93.7079,43.7659 92.5,44.5C 92.5,43.8333 92.5,43.1667 92.5,42.5C 94.5,42.5 95.5,41.5 95.5,39.5 Z"/></g>
<g><path style="opacity:1" fill="#e0dff7" d="M 107.5,39.5 C 109.124,39.3601 110.29,40.0267 111,41.5C 111.18,43.4884 111.014,45.4884 110.5,47.5C 106.04,46.4423 103.04,43.7756 101.5,39.5C 103.46,38.4808 105.46,38.4808 107.5,39.5 Z"/></g>
<g><path style="opacity:0.998" fill="#c5d7ee" d="M 23.5,34.5 C 21.9192,36.1417 21.2525,38.1417 21.5,40.5C 20.9094,41.1515 20.2427,41.8182 19.5,42.5C 21.2882,43.2826 22.2882,44.6159 22.5,46.5C 20.6499,45.3046 19.6499,45.9713 19.5,48.5C 19.7268,52.4173 21.0601,55.7506 23.5,58.5C 24.2178,60.1368 24.3845,61.8034 24,63.5C 21.8981,61.9052 20.3981,59.9052 19.5,57.5C 19.6716,56.5084 19.3382,55.8417 18.5,55.5C 18.8432,53.5168 18.1765,52.1834 16.5,51.5C 16.5,48.8333 16.5,46.1667 16.5,43.5C 16.5,43.1667 16.5,42.8333 16.5,42.5C 18.9754,41.3126 19.9754,39.3126 19.5,36.5C 20.6049,35.3995 21.9382,34.7329 23.5,34.5 Z"/></g>
<g><path style="opacity:1" fill="#bbd7f0" d="M 35.5,37.5 C 36.6197,39.1238 37.953,40.6238 39.5,42C 39.3552,42.772 39.0219,43.4387 38.5,44C 39.1094,45.9483 39.776,47.7816 40.5,49.5C 40.5,50.8333 40.5,52.1667 40.5,53.5C 39.1667,53.5 38.5,54.1667 38.5,55.5C 36.9008,56.562 35.2341,56.562 33.5,55.5C 33.5,54.5 33.5,53.5 33.5,52.5C 34.5,52.5 35.5,52.5 36.5,52.5C 36.3867,47.482 36.0534,42.482 35.5,37.5 Z"/></g>
<g><path style="opacity:1" fill="#b1c8eb" d="M 81.5,44.5 C 81.4326,45.9587 81.7659,47.2921 82.5,48.5C 82.5,48.8333 82.5,49.1667 82.5,49.5C 82.1667,49.5 81.8333,49.5 81.5,49.5C 80.1497,48.5169 79.1497,47.1836 78.5,45.5C 77.8076,46.0253 77.3076,46.6919 77,47.5C 76.6667,47.1667 76.3333,46.8333 76,46.5C 74.878,48.4068 74.0447,50.4068 73.5,52.5C 72.5798,53.0674 72.2465,52.4008 72.5,50.5C 73.1667,48.1667 73.8333,45.8333 74.5,43.5C 74.7828,42.7109 75.2828,42.0442 76,41.5C 77.7409,42.7577 79.5742,43.7577 81.5,44.5 Z"/></g>
<g><path style="opacity:1" fill="#b9ddf7" d="M 81.5,43.5 C 82.5,43.5 83.5,43.5 84.5,43.5C 84.5,44.1667 84.5,44.8333 84.5,45.5C 83.8333,46.5 83.1667,47.5 82.5,48.5C 81.7659,47.2921 81.4326,45.9587 81.5,44.5C 81.5,44.1667 81.5,43.8333 81.5,43.5 Z"/></g>
<g><path style="opacity:1" fill="#aebbd9" d="M 89.5,42.5 C 90.5,42.5 91.5,42.5 92.5,42.5C 92.5,43.1667 92.5,43.8333 92.5,44.5C 92.1667,45.1667 91.8333,45.8333 91.5,46.5C 91.1667,46.5 90.8333,46.5 90.5,46.5C 89.5655,45.4324 89.2322,44.099 89.5,42.5 Z"/></g>
<g><path style="opacity:1" fill="#dce0f4" d="M 104.5,36.5 C 106.19,36.8564 107.19,37.8564 107.5,39.5C 105.46,38.4808 103.46,38.4808 101.5,39.5C 103.04,43.7756 106.04,46.4423 110.5,47.5C 111.167,47.5 111.5,47.8333 111.5,48.5C 111.98,51.4432 112.98,54.1098 114.5,56.5C 115.207,60.2476 116.207,63.9143 117.5,67.5C 116.272,66.6935 115.272,65.6935 114.5,64.5C 113.026,60.7441 111.359,57.0775 109.5,53.5C 110.525,53.1034 110.692,52.4368 110,51.5C 107.046,49.5254 104.546,47.1921 102.5,44.5C 101.585,42.2459 100.252,40.2459 98.5,38.5C 99.9899,36.7202 101.99,36.0535 104.5,36.5 Z"/></g>
<g><path style="opacity:1" fill="#c8e4fb" d="M 69.5,66.5 C 69.5,67.5 69.5,68.5 69.5,69.5C 68.1667,69.5 67.5,70.1667 67.5,71.5C 66.8826,71.6107 66.3826,71.944 66,72.5C 65.8171,69.6353 65.3171,66.9686 64.5,64.5C 65.9206,59.2404 66.9206,53.9071 67.5,48.5C 68.2679,47.7375 68.7679,46.7375 69,45.5C 69.5788,47.6487 70.0788,49.8154 70.5,52C 69.6421,56.7948 69.3088,61.6281 69.5,66.5 Z"/></g>
<g><path style="opacity:1" fill="#b3c2e6" d="M 81.5,49.5 C 80.1738,53.8243 77.5071,54.8243 73.5,52.5C 74.0447,50.4068 74.878,48.4068 76,46.5C 76.3333,46.8333 76.6667,47.1667 77,47.5C 77.3076,46.6919 77.8076,46.0253 78.5,45.5C 79.1497,47.1836 80.1497,48.5169 81.5,49.5 Z"/></g>
<g><path style="opacity:1" fill="#f5f9fc" d="M 96.5,43.5 C 96.5,43.8333 96.5,44.1667 96.5,44.5C 96.9118,46.9726 95.9118,48.3059 93.5,48.5C 92.1667,48.5 91.5,47.8333 91.5,46.5C 91.8333,45.8333 92.1667,45.1667 92.5,44.5C 93.7079,43.7659 95.0413,43.4326 96.5,43.5 Z"/></g>
<g><path style="opacity:1" fill="#c5d5f0" d="M 87.5,41.5 C 88.4916,41.3284 89.1583,41.6618 89.5,42.5C 89.2322,44.099 89.5655,45.4324 90.5,46.5C 90.4729,48.1993 89.8062,49.5326 88.5,50.5C 87.5041,50.5858 86.6708,50.2524 86,49.5C 85.79,47.9419 85.29,46.6085 84.5,45.5C 84.5,44.8333 84.5,44.1667 84.5,43.5C 84.9731,42.0937 85.9731,41.427 87.5,41.5 Z"/></g>
<g><path style="opacity:1" fill="#b8d6f2" d="M 53.5,31.5 C 54.8333,32.1667 55.8333,33.1667 56.5,34.5C 56.2598,40.227 56.5931,45.8936 57.5,51.5C 57.5,52.1667 57.5,52.8333 57.5,53.5C 57.8333,54.8333 58.1667,56.1667 58.5,57.5C 58.5,57.8333 58.5,58.1667 58.5,58.5C 57.596,59.209 57.2627,60.209 57.5,61.5C 56.5,61.5 55.5,61.5 54.5,61.5C 54.5,59.5 54.5,57.5 54.5,55.5C 54.7054,49.1222 54.3721,42.7889 53.5,36.5C 54.562,34.9008 54.562,33.2341 53.5,31.5 Z"/></g>
<g><path style="opacity:1" fill="#c4e0fa" d="M 67.5,39.5 C 68.5,39.5 69.5,39.5 70.5,39.5C 70.1924,41.924 70.5258,44.2573 71.5,46.5C 72.1411,45.0065 73.1411,44.0065 74.5,43.5C 73.8333,45.8333 73.1667,48.1667 72.5,50.5C 71.2154,53.5885 70.5488,56.9219 70.5,60.5C 70.5,61.8333 70.5,63.1667 70.5,64.5C 70.6716,65.4916 70.3382,66.1583 69.5,66.5C 69.3088,61.6281 69.6421,56.7948 70.5,52C 70.0788,49.8154 69.5788,47.6487 69,45.5C 68.7679,46.7375 68.2679,47.7375 67.5,48.5C 68.0779,45.388 68.0779,42.388 67.5,39.5 Z"/></g>
<g><path style="opacity:1" fill="#dbedf8" d="M 100.5,45.5 C 100.5,45.1667 100.5,44.8333 100.5,44.5C 101.167,44.5 101.833,44.5 102.5,44.5C 104.546,47.1921 107.046,49.5254 110,51.5C 110.692,52.4368 110.525,53.1034 109.5,53.5C 109.167,53.5 108.833,53.5 108.5,53.5C 108.167,52.5 107.5,51.8333 106.5,51.5C 104.833,49.1667 102.833,47.1667 100.5,45.5 Z"/></g>
<g><path style="opacity:0.48" fill="#e6eaf2" d="M 16.5,43.5 C 16.5,46.1667 16.5,48.8333 16.5,51.5C 16.5,52.5 16.5,53.5 16.5,54.5C 15.5,54.5 14.5,54.5 13.5,54.5C 15.1654,52.5903 15.4987,50.5903 14.5,48.5C 14.8008,46.5784 15.4675,44.9117 16.5,43.5 Z"/></g>
<g><path style="opacity:1" fill="#e0eefa" d="M 42.5,45.5 C 44.0739,47.1016 44.7406,49.1016 44.5,51.5C 44.1667,51.5 43.8333,51.5 43.5,51.5C 43.1667,49.5 42.8333,47.5 42.5,45.5 Z"/></g>
<g><path style="opacity:1" fill="#bed0f0" d="M 53.5,36.5 C 54.3721,42.7889 54.7054,49.1222 54.5,55.5C 51.7503,52.6673 50.0836,49.334 49.5,45.5C 49.5172,43.4352 49.8505,41.4352 50.5,39.5C 51.2719,38.3065 52.2719,37.3065 53.5,36.5 Z"/></g>
<g><path style="opacity:1" fill="#e9f0fa" d="M 90.5,46.5 C 90.8333,46.5 91.1667,46.5 91.5,46.5C 91.5,47.8333 92.1667,48.5 93.5,48.5C 92.4489,49.2223 91.7822,50.2223 91.5,51.5C 90.8333,51.5 90.5,51.8333 90.5,52.5C 89.1667,52.5 88.5,51.8333 88.5,50.5C 89.8062,49.5326 90.4729,48.1993 90.5,46.5 Z"/></g>
<g><path style="opacity:1" fill="#a4e0f6" d="M 96.5,44.5 C 96.5,44.1667 96.5,43.8333 96.5,43.5C 98.0618,43.7329 99.3951,44.3995 100.5,45.5C 102.833,47.1667 104.833,49.1667 106.5,51.5C 106.672,52.4916 106.338,53.1583 105.5,53.5C 104.609,52.8902 103.609,52.5569 102.5,52.5C 101.599,50.2729 99.9328,49.2729 97.5,49.5C 97.7845,47.5853 97.4511,45.9187 96.5,44.5 Z"/></g>
<g><path style="opacity:1" fill="#c9daf6" d="M 27.5,41.5 C 28.2223,42.5511 29.2223,43.2178 30.5,43.5C 30.6896,46.855 31.6896,49.855 33.5,52.5C 33.5,53.5 33.5,54.5 33.5,55.5C 32.3236,59.2707 30.9902,59.104 29.5,55C 31.4951,54.0764 31.8284,52.9097 30.5,51.5C 30.2511,49.0637 29.2511,47.0637 27.5,45.5C 26.3336,47.1673 26.3336,48.834 27.5,50.5C 27.5,51.1667 27.5,51.8333 27.5,52.5C 23.7499,48.9337 23.7499,45.2671 27.5,41.5 Z"/></g>
<g><path style="opacity:1" fill="#ccddf8" d="M 96.5,44.5 C 97.4511,45.9187 97.7845,47.5853 97.5,49.5C 97.2627,50.791 97.596,51.791 98.5,52.5C 98.8333,53.8333 99.1667,55.1667 99.5,56.5C 98.0937,56.9731 97.427,57.9731 97.5,59.5C 94.4331,59.8795 93.4331,58.8795 94.5,56.5C 94.5,54.8333 94.5,53.1667 94.5,51.5C 93.5,51.5 92.5,51.5 91.5,51.5C 91.7822,50.2223 92.4489,49.2223 93.5,48.5C 95.9118,48.3059 96.9118,46.9726 96.5,44.5 Z"/></g>
<g><path style="opacity:1" fill="#acd1f4" d="M 97.5,49.5 C 99.9328,49.2729 101.599,50.2729 102.5,52.5C 101.5,52.5 100.5,52.5 99.5,52.5C 99.1667,52.5 98.8333,52.5 98.5,52.5C 97.596,51.791 97.2627,50.791 97.5,49.5 Z"/></g>
<g><path style="opacity:0.78" fill="#e4e8f5" d="M 129.5,43.5 C 131.504,44.6728 133.004,46.3395 134,48.5C 134.719,52.1454 135.219,55.8121 135.5,59.5C 135.81,62.7131 135.477,65.7131 134.5,68.5C 134.5,67.1667 134.5,65.8333 134.5,64.5C 134.664,61.8127 134.497,59.146 134,56.5C 133.617,55.944 133.117,55.6107 132.5,55.5C 132.663,53.1432 132.497,50.8098 132,48.5C 131.617,47.944 131.117,47.6107 130.5,47.5C 130.167,46.1667 129.833,44.8333 129.5,43.5 Z"/></g>
<g><path style="opacity:1" fill="#aebbdc" d="M 30.5,51.5 C 30.44,52.0431 30.1067,52.3764 29.5,52.5C 28.8182,51.7573 28.1515,51.0906 27.5,50.5C 26.3336,48.834 26.3336,47.1673 27.5,45.5C 29.2511,47.0637 30.2511,49.0637 30.5,51.5 Z"/></g>
<g><path style="opacity:1" fill="#c3d6f1" d="M 63.5,52.5 C 63.8174,55.5719 63.4841,58.5719 62.5,61.5C 61.0416,59.8615 60.7083,58.1949 61.5,56.5C 61.1667,56.1667 60.8333,55.8333 60.5,55.5C 59.8182,56.2427 59.1515,56.9094 58.5,57.5C 58.1667,56.1667 57.8333,54.8333 57.5,53.5C 58.4959,53.4142 59.3292,53.7476 60,54.5C 60.2685,49.3504 61.2685,44.3504 63,39.5C 63.2258,43.5519 62.7258,47.5519 61.5,51.5C 61.4387,53.721 62.1054,54.0544 63.5,52.5 Z"/></g>
<g><path style="opacity:1" fill="#c6d1ef" d="M 81.5,49.5 C 81.8333,49.5 82.1667,49.5 82.5,49.5C 83.5841,51.4321 84.9174,53.2654 86.5,55C 86.0109,56.1385 85.6775,57.3052 85.5,58.5C 84.6851,59.4293 83.8518,60.4293 83,61.5C 82.6582,59.3808 81.8249,59.0474 80.5,60.5C 79.9217,58.5565 78.9217,58.2232 77.5,59.5C 76,61.8333 74.5,64.1667 73,66.5C 72.5172,65.552 72.3505,64.552 72.5,63.5C 73.9334,61.4809 75.2668,59.3143 76.5,57C 72.6737,54.6368 71.007,55.8035 71.5,60.5C 71.1667,60.5 70.8333,60.5 70.5,60.5C 70.5488,56.9219 71.2154,53.5885 72.5,50.5C 72.2465,52.4008 72.5798,53.0674 73.5,52.5C 77.5071,54.8243 80.1738,53.8243 81.5,49.5 Z"/></g>
<g><path style="opacity:1" fill="#d1dbf4" d="M 130.5,47.5 C 131.117,47.6107 131.617,47.944 132,48.5C 132.497,50.8098 132.663,53.1432 132.5,55.5C 132.167,55.5 131.833,55.5 131.5,55.5C 131.5,55.1667 131.5,54.8333 131.5,54.5C 131.552,52.0971 131.219,49.7638 130.5,47.5 Z"/></g>
<g><path style="opacity:1" fill="#e9ecf9" d="M 48.5,45.5 C 48.8333,45.5 49.1667,45.5 49.5,45.5C 49.7244,49.1788 50.0578,52.8455 50.5,56.5C 48.6122,54.0122 47.9455,51.0122 48.5,47.5C 48.5,46.8333 48.5,46.1667 48.5,45.5 Z"/></g>
<g><path style="opacity:1" fill="#cadbf5" d="M 84.5,45.5 C 85.29,46.6085 85.79,47.9419 86,49.5C 86.6708,50.2524 87.5041,50.5858 88.5,50.5C 88.5,51.8333 89.1667,52.5 90.5,52.5C 90.5,53.5 90.5,54.5 90.5,55.5C 89.5041,55.4142 88.6708,55.7476 88,56.5C 87.8019,58.3817 87.3019,60.0484 86.5,61.5C 85.596,60.791 85.2627,59.791 85.5,58.5C 85.6775,57.3052 86.0109,56.1385 86.5,55C 84.9174,53.2654 83.5841,51.4321 82.5,49.5C 82.5,49.1667 82.5,48.8333 82.5,48.5C 83.1667,47.5 83.8333,46.5 84.5,45.5 Z"/></g>
<g><path style="opacity:1" fill="#afc8ed" d="M 99.5,52.5 C 100.5,52.5 101.5,52.5 102.5,52.5C 103.609,52.5569 104.609,52.8902 105.5,53.5C 105.5,53.8333 105.5,54.1667 105.5,54.5C 105.5,54.8333 105.5,55.1667 105.5,55.5C 103.03,55.3465 101.03,54.3465 99.5,52.5 Z"/></g>
<g><path style="opacity:1" fill="#d7e5f7" d="M 111.5,48.5 C 114.173,50.5061 116.506,52.8394 118.5,55.5C 119.429,54.3112 119.762,52.9778 119.5,51.5C 119.833,51.5 120.167,51.5 120.5,51.5C 120.674,53.861 121.007,56.1944 121.5,58.5C 120.527,57.2086 119.527,57.2086 118.5,58.5C 117.281,57.7366 116.281,56.7366 115.5,55.5C 114.893,55.6236 114.56,55.9569 114.5,56.5C 112.98,54.1098 111.98,51.4432 111.5,48.5 Z"/></g>
<g><path style="opacity:1" fill="#bbd9f0" d="M 22.5,46.5 C 22.5792,47.9305 22.2458,49.2638 21.5,50.5C 23.9811,51.7197 25.9811,53.3863 27.5,55.5C 27.5,56.1667 27.5,56.8333 27.5,57.5C 28.5042,59.6773 27.8375,60.0107 25.5,58.5C 24.8333,57.1667 24.1667,57.1667 23.5,58.5C 21.0601,55.7506 19.7268,52.4173 19.5,48.5C 19.6499,45.9713 20.6499,45.3046 22.5,46.5 Z"/></g>
<g><path style="opacity:1" fill="#c7cfec" d="M 126.5,48.5 C 127.167,48.5 127.5,48.8333 127.5,49.5C 128.36,53.4338 128.693,57.4338 128.5,61.5C 128.167,61.5 127.833,61.5 127.5,61.5C 127.533,57.1311 127.2,52.7978 126.5,48.5 Z"/></g>
<g><path style="opacity:1" fill="#d6d8ed" d="M 16.5,51.5 C 18.1765,52.1834 18.8432,53.5168 18.5,55.5C 16.5168,55.1568 15.1834,55.8235 14.5,57.5C 14.1667,57.5 13.8333,57.5 13.5,57.5C 13.5,56.5 13.5,55.5 13.5,54.5C 14.5,54.5 15.5,54.5 16.5,54.5C 16.5,53.5 16.5,52.5 16.5,51.5 Z"/></g>
<g><path style="opacity:1" fill="#bbe2f9" d="M 106.5,51.5 C 107.5,51.8333 108.167,52.5 108.5,53.5C 108.196,55.7957 107.196,56.129 105.5,54.5C 105.5,54.1667 105.5,53.8333 105.5,53.5C 106.338,53.1583 106.672,52.4916 106.5,51.5 Z"/></g>
<g><path style="opacity:0.998" fill="#cdd2ef" d="M 18.5,55.5 C 19.3382,55.8417 19.6716,56.5084 19.5,57.5C 17.8828,58.038 16.2161,58.3713 14.5,58.5C 14.5,58.1667 14.5,57.8333 14.5,57.5C 15.1834,55.8235 16.5168,55.1568 18.5,55.5 Z"/></g>
<g><path style="opacity:1" fill="#b5d2ed" d="M 43.5,51.5 C 43.8333,51.5 44.1667,51.5 44.5,51.5C 44.5,51.8333 44.5,52.1667 44.5,52.5C 45.1621,56.4659 45.4955,60.4659 45.5,64.5C 43.5841,60.8371 42.5841,56.8371 42.5,52.5C 42.5,51.8333 42.8333,51.5 43.5,51.5 Z"/></g>
<g><path style="opacity:1" fill="#bbd2ef" d="M 49.5,45.5 C 50.0836,49.334 51.7503,52.6673 54.5,55.5C 54.5,57.5 54.5,59.5 54.5,61.5C 55.5,61.5 56.5,61.5 57.5,61.5C 57.2627,60.209 57.596,59.209 58.5,58.5C 58.5,59.5 58.5,60.5 58.5,61.5C 59.463,62.3635 59.463,63.0302 58.5,63.5C 56.0678,62.2848 53.7345,61.9514 51.5,62.5C 51.7845,60.5853 51.4511,58.9187 50.5,57.5C 50.5,57.1667 50.5,56.8333 50.5,56.5C 50.0578,52.8455 49.7244,49.1788 49.5,45.5 Z"/></g>
<g><path style="opacity:1" fill="#cccbee" d="M 72.5,63.5 C 71.596,62.791 71.2627,61.791 71.5,60.5C 71.007,55.8035 72.6737,54.6368 76.5,57C 75.2668,59.3143 73.9334,61.4809 72.5,63.5 Z"/></g>
<g><path style="opacity:1" fill="#e1d7f9" d="M 91.5,51.5 C 92.5,51.5 93.5,51.5 94.5,51.5C 94.5,53.1667 94.5,54.8333 94.5,56.5C 92.5,56.5 91.5,57.5 91.5,59.5C 90.5655,58.4324 90.2322,57.099 90.5,55.5C 90.5,54.5 90.5,53.5 90.5,52.5C 90.5,51.8333 90.8333,51.5 91.5,51.5 Z"/></g>
<g><path style="opacity:1" fill="#d1e5f5" d="M 121.5,58.5 C 122.117,58.6107 122.617,58.944 123,59.5C 123.499,63.4862 123.666,67.4862 123.5,71.5C 123.565,71.9382 123.399,72.2716 123,72.5C 121.229,70.7092 119.396,69.0425 117.5,67.5C 116.207,63.9143 115.207,60.2476 114.5,56.5C 114.56,55.9569 114.893,55.6236 115.5,55.5C 116.281,56.7366 117.281,57.7366 118.5,58.5C 119.527,57.2086 120.527,57.2086 121.5,58.5 Z"/></g>
<g><path style="opacity:1" fill="#dde2f6" d="M 125.5,47.5 C 126.167,47.5 126.5,47.8333 126.5,48.5C 127.2,52.7978 127.533,57.1311 127.5,61.5C 128.08,65.649 127.414,69.3157 125.5,72.5C 124.551,69.128 124.551,65.7947 125.5,62.5C 125.023,57.5969 124.023,52.9303 122.5,48.5C 122.167,47.8333 121.833,47.1667 121.5,46.5C 121.56,45.9569 121.893,45.6236 122.5,45.5C 123.518,46.1925 124.518,46.8592 125.5,47.5 Z"/></g>
<g><path style="opacity:1" fill="#c5d4f4" d="M 27.5,50.5 C 28.1515,51.0906 28.8182,51.7573 29.5,52.5C 30.1067,52.3764 30.44,52.0431 30.5,51.5C 31.8284,52.9097 31.4951,54.0764 29.5,55C 30.9902,59.104 32.3236,59.2707 33.5,55.5C 35.2341,56.562 36.9008,56.562 38.5,55.5C 38.5,56.1667 38.5,56.8333 38.5,57.5C 35.3607,57.5988 33.0274,58.9321 31.5,61.5C 30.607,59.703 29.2737,58.3696 27.5,57.5C 27.5,56.8333 27.5,56.1667 27.5,55.5C 27.5,54.5 27.5,53.5 27.5,52.5C 27.5,51.8333 27.5,51.1667 27.5,50.5 Z"/></g>
<g><path style="opacity:1" fill="#bfcbec" d="M 99.5,56.5 C 100.167,57.5 100.833,58.5 101.5,59.5C 101.771,61.3797 101.104,62.713 99.5,63.5C 98.791,62.596 97.791,62.2627 96.5,62.5C 97.1098,61.609 97.4431,60.609 97.5,59.5C 97.427,57.9731 98.0937,56.9731 99.5,56.5 Z"/></g>
<g><path style="opacity:1" fill="#cfd0f3" d="M 98.5,52.5 C 98.8333,52.5 99.1667,52.5 99.5,52.5C 101.03,54.3465 103.03,55.3465 105.5,55.5C 105.5,55.8333 105.5,56.1667 105.5,56.5C 104.764,58.2294 103.43,59.2294 101.5,59.5C 100.833,58.5 100.167,57.5 99.5,56.5C 99.1667,55.1667 98.8333,53.8333 98.5,52.5 Z"/></g>
<g><path style="opacity:0.881" fill="#d8e0f6" d="M 132.5,55.5 C 133.117,55.6107 133.617,55.944 134,56.5C 134.497,59.146 134.664,61.8127 134.5,64.5C 133.343,61.7273 132.676,58.7273 132.5,55.5 Z"/></g>
<g><path style="opacity:1" fill="#c1cff3" d="M 38.5,57.5 C 39.0369,62.8506 39.7035,68.1839 40.5,73.5C 39.661,72.3588 38.9943,71.0255 38.5,69.5C 37.675,68.6143 36.675,68.281 35.5,68.5C 35.7148,66.8212 35.0481,65.8212 33.5,65.5C 32.8333,64.1667 32.1667,62.8333 31.5,61.5C 33.0274,58.9321 35.3607,57.5988 38.5,57.5 Z"/></g>
<g><path style="opacity:1" fill="#f9f5fc" d="M 48.5,47.5 C 47.9455,51.0122 48.6122,54.0122 50.5,56.5C 50.5,56.8333 50.5,57.1667 50.5,57.5C 50.6659,62.5111 50.4993,67.5111 50,72.5C 47.5519,67.1587 46.3853,61.4921 46.5,55.5C 46.1107,52.4467 46.7773,49.78 48.5,47.5 Z"/></g>
<g><path style="opacity:1" fill="#c9ddf4" d="M 40.5,53.5 C 40.8583,57.5092 41.3583,61.5092 42,65.5C 42.3333,65.1667 42.6667,64.8333 43,64.5C 43.1829,67.3647 43.6829,70.0314 44.5,72.5C 46.1704,85.4803 45.1704,85.8136 41.5,73.5C 41.1667,73.5 40.8333,73.5 40.5,73.5C 39.7035,68.1839 39.0369,62.8506 38.5,57.5C 38.5,56.8333 38.5,56.1667 38.5,55.5C 38.5,54.1667 39.1667,53.5 40.5,53.5 Z"/></g>
<g><path style="opacity:1" fill="#c1d6f0" d="M 40.5,49.5 C 41.1667,50.5 41.8333,51.5 42.5,52.5C 42.5841,56.8371 43.5841,60.8371 45.5,64.5C 46.531,66.9608 47.1977,69.6275 47.5,72.5C 46.4415,71.3998 45.6082,70.0664 45,68.5C 44.51,69.7932 44.3433,71.1266 44.5,72.5C 43.6829,70.0314 43.1829,67.3647 43,64.5C 42.6667,64.8333 42.3333,65.1667 42,65.5C 41.3583,61.5092 40.8583,57.5092 40.5,53.5C 40.5,52.1667 40.5,50.8333 40.5,49.5 Z"/></g>
<g><path style="opacity:1" fill="#cdd6f3" d="M 85.5,58.5 C 85.2627,59.791 85.596,60.791 86.5,61.5C 85.5216,65.595 83.355,68.9283 80,71.5C 79.5065,73.1341 79.3398,74.8008 79.5,76.5C 77.1602,75.4282 76.8269,73.7615 78.5,71.5C 78.0431,70.7025 77.3764,70.3691 76.5,70.5C 78.0291,67.2464 79.3624,63.913 80.5,60.5C 81.8249,59.0474 82.6582,59.3808 83,61.5C 83.8518,60.4293 84.6851,59.4293 85.5,58.5 Z"/></g>
<g><path style="opacity:1" fill="#d6dbfa" d="M 90.5,55.5 C 90.2322,57.099 90.5655,58.4324 91.5,59.5C 89.9138,61.6705 88.5804,64.0038 87.5,66.5C 86.2592,70.5889 84.9258,74.5889 83.5,78.5C 82.8333,78.8333 82.1667,79.1667 81.5,79.5C 82.5877,77.4175 83.5877,75.2508 84.5,73C 83.451,72.5078 82.451,72.6744 81.5,73.5C 80.8243,74.6016 80.1577,75.6016 79.5,76.5C 79.3398,74.8008 79.5065,73.1341 80,71.5C 83.355,68.9283 85.5216,65.595 86.5,61.5C 87.3019,60.0484 87.8019,58.3817 88,56.5C 88.6708,55.7476 89.5041,55.4142 90.5,55.5 Z"/></g>
<g><path style="opacity:1" fill="#cddef8" d="M 108.5,53.5 C 108.833,53.5 109.167,53.5 109.5,53.5C 111.359,57.0775 113.026,60.7441 114.5,64.5C 113.272,65.3065 112.272,66.3065 111.5,67.5C 111.5,65.5 110.5,64.5 108.5,64.5C 105.99,64.0535 103.99,64.7202 102.5,66.5C 101.185,67.4756 99.8518,68.4756 98.5,69.5C 97.7025,69.0431 97.3691,68.3764 97.5,67.5C 98.1667,67.5 98.5,67.1667 98.5,66.5C 100.807,64.6616 103.14,62.6616 105.5,60.5C 106.695,62.297 108.362,63.297 110.5,63.5C 110.762,62.0222 110.429,60.6888 109.5,59.5C 107.84,58.8284 106.507,57.8284 105.5,56.5C 105.5,56.1667 105.5,55.8333 105.5,55.5C 105.5,55.1667 105.5,54.8333 105.5,54.5C 107.196,56.129 108.196,55.7957 108.5,53.5 Z"/></g>
<g><path style="opacity:1" fill="#c1d3ee" d="M 19.5,57.5 C 20.3981,59.9052 21.8981,61.9052 24,63.5C 24.3845,61.8034 24.2178,60.1368 23.5,58.5C 24.1667,57.1667 24.8333,57.1667 25.5,58.5C 25.7031,60.0443 26.3698,61.3777 27.5,62.5C 26.9478,64.0026 26.9478,65.6693 27.5,67.5C 26.2876,66.7701 25.2876,65.7701 24.5,64.5C 23.8182,65.2427 23.1515,65.9094 22.5,66.5C 21.5207,65.2347 20.5207,63.9014 19.5,62.5C 19.1667,63 18.8333,63.5 18.5,64C 19.7107,66.92 21.044,69.7533 22.5,72.5C 21.2502,72.4226 20.4169,71.756 20,70.5C 19.6667,71.5 19.3333,72.5 19,73.5C 18.5604,71.9238 17.727,70.5904 16.5,69.5C 17.5568,67.2337 17.0568,65.2337 15,63.5C 14.5065,61.8659 14.3398,60.1992 14.5,58.5C 16.2161,58.3713 17.8828,58.038 19.5,57.5 Z"/></g>
<g><path style="opacity:1" fill="#bfd2f0" d="M 58.5,61.5 C 59.9953,61.4148 60.9953,62.0815 61.5,63.5C 60.7542,64.7362 60.4208,66.0695 60.5,67.5C 59.0096,70.9733 57.6763,74.64 56.5,78.5C 54.9724,79.8021 53.9724,81.4687 53.5,83.5C 53.8016,80.9407 53.4682,78.6074 52.5,76.5C 52.7373,75.209 52.404,74.209 51.5,73.5C 51.5,69.8333 51.5,66.1667 51.5,62.5C 53.7345,61.9514 56.0678,62.2848 58.5,63.5C 59.463,63.0302 59.463,62.3635 58.5,61.5 Z"/></g>
<g><path style="opacity:1" fill="#d1d6f4" d="M 94.5,56.5 C 93.4331,58.8795 94.4331,59.8795 97.5,59.5C 97.4431,60.609 97.1098,61.609 96.5,62.5C 95.0377,65.8855 93.0377,68.8855 90.5,71.5C 90.7271,69.0672 89.7271,67.4006 87.5,66.5C 88.5804,64.0038 89.9138,61.6705 91.5,59.5C 91.5,57.5 92.5,56.5 94.5,56.5 Z"/></g>
<g><path style="opacity:1" fill="#c2cfef" d="M 80.5,60.5 C 79.3624,63.913 78.0291,67.2464 76.5,70.5C 76.7709,72.3797 76.1042,73.713 74.5,74.5C 74.19,73.2617 73.69,73.2617 73,74.5C 72.5604,72.9238 71.727,71.5904 70.5,70.5C 71.7537,68.3569 71.7537,66.3569 70.5,64.5C 70.5,63.1667 70.5,61.8333 70.5,60.5C 70.8333,60.5 71.1667,60.5 71.5,60.5C 71.2627,61.791 71.596,62.791 72.5,63.5C 72.3505,64.552 72.5172,65.552 73,66.5C 74.5,64.1667 76,61.8333 77.5,59.5C 78.9217,58.2232 79.9217,58.5565 80.5,60.5 Z"/></g>
<g><path style="opacity:1" fill="#ced9f6" d="M 105.5,56.5 C 106.507,57.8284 107.84,58.8284 109.5,59.5C 110.429,60.6888 110.762,62.0222 110.5,63.5C 108.362,63.297 106.695,62.297 105.5,60.5C 103.14,62.6616 100.807,64.6616 98.5,66.5C 98.5569,65.391 98.8902,64.391 99.5,63.5C 101.104,62.713 101.771,61.3797 101.5,59.5C 103.43,59.2294 104.764,58.2294 105.5,56.5 Z"/></g>
<g><path style="opacity:1" fill="#cae3fb" d="M 64.5,64.5 C 65.3171,66.9686 65.8171,69.6353 66,72.5C 66.3826,71.944 66.8826,71.6107 67.5,71.5C 67.1156,76.0373 65.9489,80.3707 64,84.5C 63.6744,79.9279 63.5078,75.5945 63.5,71.5C 63.298,69.0504 63.6314,66.717 64.5,64.5 Z"/></g>
<g><path style="opacity:1" fill="#aab8df" d="M 127.5,49.5 C 129.539,50.6718 130.872,52.3384 131.5,54.5C 131.5,54.8333 131.5,55.1667 131.5,55.5C 131.372,59.8814 131.705,64.2147 132.5,68.5C 132.5,70.1667 132.5,71.8333 132.5,73.5C 131.842,74.3984 131.176,75.3984 130.5,76.5C 129.833,72.3525 129.166,68.3525 128.5,64.5C 128.5,63.5 128.5,62.5 128.5,61.5C 128.693,57.4338 128.36,53.4338 127.5,49.5 Z"/></g>
<g><path style="opacity:1" fill="#cfe7f8" d="M 44.5,52.5 C 45.1667,53.5 45.8333,54.5 46.5,55.5C 46.3853,61.4921 47.5519,67.1587 50,72.5C 50.4993,67.5111 50.6659,62.5111 50.5,57.5C 51.4511,58.9187 51.7845,60.5853 51.5,62.5C 51.5,66.1667 51.5,69.8333 51.5,73.5C 51.5979,75.5529 50.9313,77.2196 49.5,78.5C 49.405,76.2143 48.7384,74.2143 47.5,72.5C 47.1977,69.6275 46.531,66.9608 45.5,64.5C 45.4955,60.4659 45.1621,56.4659 44.5,52.5 Z"/></g>
<g><path style="opacity:1" fill="#c4d3f1" d="M 67.5,48.5 C 66.9206,53.9071 65.9206,59.2404 64.5,64.5C 63.6314,66.717 63.298,69.0504 63.5,71.5C 62.8333,71.5 62.5,71.8333 62.5,72.5C 61.596,71.791 61.2627,70.791 61.5,69.5C 61.6716,68.5084 61.3382,67.8417 60.5,67.5C 60.4208,66.0695 60.7542,64.7362 61.5,63.5C 60.9953,62.0815 59.9953,61.4148 58.5,61.5C 58.5,60.5 58.5,59.5 58.5,58.5C 58.5,58.1667 58.5,57.8333 58.5,57.5C 59.1515,56.9094 59.8182,56.2427 60.5,55.5C 60.8333,55.8333 61.1667,56.1667 61.5,56.5C 60.7083,58.1949 61.0416,59.8615 62.5,61.5C 63.4841,58.5719 63.8174,55.5719 63.5,52.5C 64.0604,50.1992 64.5604,47.8659 65,45.5C 65.3333,48.1667 65.6667,50.8333 66,53.5C 66.1981,51.6183 66.6981,49.9516 67.5,48.5 Z"/></g>
<g><path style="opacity:1" fill="#b8d1f3" d="M 108.5,64.5 C 108.737,65.791 108.404,66.791 107.5,67.5C 106.833,67.5 106.167,67.5 105.5,67.5C 104.209,67.7373 103.209,67.404 102.5,66.5C 103.99,64.7202 105.99,64.0535 108.5,64.5 Z"/></g>
<g><path style="opacity:1" fill="#bbc8ea" d="M 131.5,55.5 C 131.833,55.5 132.167,55.5 132.5,55.5C 132.676,58.7273 133.343,61.7273 134.5,64.5C 134.5,65.8333 134.5,67.1667 134.5,68.5C 133.833,68.5 133.167,68.5 132.5,68.5C 131.705,64.2147 131.372,59.8814 131.5,55.5 Z"/></g>
<g><path style="opacity:1" fill="#c4d4f0" d="M 27.5,67.5 C 28.1988,72.272 29.8655,76.6053 32.5,80.5C 32.8333,81.8333 33.1667,83.1667 33.5,84.5C 31.8058,83.4726 30.4725,82.1392 29.5,80.5C 27.92,75.4072 25.5867,70.7405 22.5,66.5C 23.1515,65.9094 23.8182,65.2427 24.5,64.5C 25.2876,65.7701 26.2876,66.7701 27.5,67.5 Z"/></g>
<g><path style="opacity:1" fill="#c3d6f2" d="M 60.5,67.5 C 61.3382,67.8417 61.6716,68.5084 61.5,69.5C 60.8826,69.6107 60.3826,69.944 60,70.5C 59.2185,75.9167 59.3852,81.2501 60.5,86.5C 60.1583,87.3382 59.4916,87.6716 58.5,87.5C 58.2189,85.0372 57.2189,82.8705 55.5,81C 56.2524,80.3292 56.5858,79.4959 56.5,78.5C 57.6763,74.64 59.0096,70.9733 60.5,67.5 Z"/></g>
<g><path style="opacity:0.51" fill="#e1eef5" d="M 13.5,54.5 C 13.5,55.5 13.5,56.5 13.5,57.5C 13.3517,62.3188 14.0184,66.9855 15.5,71.5C 15.5,74.5 15.5,77.5 15.5,80.5C 13.9136,74.5276 12.5803,68.3609 11.5,62C 11.6462,59.2402 12.3128,56.7402 13.5,54.5 Z"/></g>
<g><path style="opacity:1" fill="#c5ddf1" d="M 34.5,78.5 C 34.8693,80.9935 34.2027,81.6602 32.5,80.5C 29.8655,76.6053 28.1988,72.272 27.5,67.5C 28.3149,66.5707 29.1482,65.5707 30,64.5C 32.7284,68.7386 34.2284,73.4053 34.5,78.5 Z"/></g>
<g><path style="opacity:1" fill="#b5c8eb" d="M 33.5,65.5 C 35.0481,65.8212 35.7148,66.8212 35.5,68.5C 36.675,68.281 37.675,68.6143 38.5,69.5C 38.9943,71.0255 39.661,72.3588 40.5,73.5C 40.8333,73.5 41.1667,73.5 41.5,73.5C 41.2422,77.3721 41.9089,81.0388 43.5,84.5C 43.6567,85.8734 43.49,87.2068 43,88.5C 42.6174,87.944 42.1174,87.6107 41.5,87.5C 39.4263,80.006 36.7596,72.6727 33.5,65.5 Z"/></g>
<g><path style="opacity:1" fill="#d3d1f3" d="M 96.5,62.5 C 97.791,62.2627 98.791,62.596 99.5,63.5C 98.8902,64.391 98.5569,65.391 98.5,66.5C 98.5,67.1667 98.1667,67.5 97.5,67.5C 95.8372,69.4385 95.1706,71.7718 95.5,74.5C 94.3995,75.6049 93.7329,76.9382 93.5,78.5C 93.1667,78.5 92.8333,78.5 92.5,78.5C 92.3404,76.847 91.6737,75.5137 90.5,74.5C 90.5,73.5 90.5,72.5 90.5,71.5C 93.0377,68.8855 95.0377,65.8855 96.5,62.5 Z"/></g>
<g><path style="opacity:1" fill="#c0e5f9" d="M 108.5,64.5 C 110.5,64.5 111.5,65.5 111.5,67.5C 110.566,68.5676 110.232,69.901 110.5,71.5C 106.814,71.87 105.814,70.5367 107.5,67.5C 108.404,66.791 108.737,65.791 108.5,64.5 Z"/></g>
<g><path style="opacity:1" fill="#bed6ee" d="M 13.5,57.5 C 13.8333,57.5 14.1667,57.5 14.5,57.5C 14.5,57.8333 14.5,58.1667 14.5,58.5C 14.3398,60.1992 14.5065,61.8659 15,63.5C 17.0568,65.2337 17.5568,67.2337 16.5,69.5C 17.727,70.5904 18.5604,71.9238 19,73.5C 19.3333,72.5 19.6667,71.5 20,70.5C 20.4169,71.756 21.2502,72.4226 22.5,72.5C 24.3582,74.8831 25.6916,77.5498 26.5,80.5C 26.9539,82.7411 26.9539,84.7411 26.5,86.5C 25.5156,83.4394 24.1823,80.1061 22.5,76.5C 21.0095,75.7564 19.5095,75.0897 18,74.5C 18.0833,77.1194 18.25,79.786 18.5,82.5C 17.2248,78.8977 16.2248,75.231 15.5,71.5C 14.0184,66.9855 13.3517,62.3188 13.5,57.5 Z"/></g>
<g><path style="opacity:1" fill="#d5ddf7" d="M 117.5,69.5 C 118.6,70.6049 119.267,71.9382 119.5,73.5C 118.791,74.404 117.791,74.7373 116.5,74.5C 115.833,74.1667 115.167,73.8333 114.5,73.5C 114.088,71.0274 115.088,69.6941 117.5,69.5 Z"/></g>
<g><path style="opacity:1" fill="#dfeafa" d="M 122.5,48.5 C 124.023,52.9303 125.023,57.5969 125.5,62.5C 124.551,65.7947 124.551,69.128 125.5,72.5C 125.5,74.1667 125.5,75.8333 125.5,77.5C 124.833,75.5 124.167,73.5 123.5,71.5C 123.666,67.4862 123.499,63.4862 123,59.5C 122.617,58.944 122.117,58.6107 121.5,58.5C 121.007,56.1944 120.674,53.861 120.5,51.5C 120.782,50.2223 121.449,49.2223 122.5,48.5 Z"/></g>
<g><path style="opacity:1" fill="#c4d6f2" d="M 27.5,57.5 C 29.2737,58.3696 30.607,59.703 31.5,61.5C 32.1667,62.8333 32.8333,64.1667 33.5,65.5C 36.7596,72.6727 39.4263,80.006 41.5,87.5C 41.5,88.1667 41.5,88.8333 41.5,89.5C 40.3127,87.9275 39.3127,86.2608 38.5,84.5C 39.1089,81.1216 37.7756,79.1216 34.5,78.5C 34.2284,73.4053 32.7284,68.7386 30,64.5C 29.1482,65.5707 28.3149,66.5707 27.5,67.5C 26.9478,65.6693 26.9478,64.0026 27.5,62.5C 26.3698,61.3777 25.7031,60.0443 25.5,58.5C 27.8375,60.0107 28.5042,59.6773 27.5,57.5 Z"/></g>
<g><path style="opacity:1" fill="#dbe6f8" d="M 117.5,67.5 C 119.396,69.0425 121.229,70.7092 123,72.5C 123.399,72.2716 123.565,71.9382 123.5,71.5C 124.167,73.5 124.833,75.5 125.5,77.5C 124.974,84.9997 123.641,85.3331 121.5,78.5C 120.976,76.6943 120.309,75.0276 119.5,73.5C 119.267,71.9382 118.6,70.6049 117.5,69.5C 117.5,68.8333 117.5,68.1667 117.5,67.5 Z"/></g>
<g><path style="opacity:1" fill="#c8d2f0" d="M 87.5,66.5 C 89.7271,67.4006 90.7271,69.0672 90.5,71.5C 87.6761,73.7996 85.8428,76.7996 85,80.5C 84.6667,80.8333 84.3333,81.1667 84,81.5C 83.5172,80.552 83.3505,79.552 83.5,78.5C 84.9258,74.5889 86.2592,70.5889 87.5,66.5 Z"/></g>
<g><path style="opacity:1" fill="#dbd8f2" d="M 93.5,85.5 C 92.3773,83.312 92.3773,80.9787 93.5,78.5C 93.7329,76.9382 94.3995,75.6049 95.5,74.5C 97.2273,72.3965 99.3939,70.7298 102,69.5C 102.638,70.6086 103.138,71.7753 103.5,73C 100.907,76.6312 97.7408,79.7978 94,82.5C 93.5172,83.448 93.3505,84.448 93.5,85.5 Z"/></g>
<g><path style="opacity:1" fill="#cbdef8" d="M 105.5,67.5 C 106.167,67.5 106.833,67.5 107.5,67.5C 105.814,70.5367 106.814,71.87 110.5,71.5C 110.232,69.901 110.566,68.5676 111.5,67.5C 112.075,71.1547 111.075,74.1547 108.5,76.5C 107.833,76.5 107.167,76.5 106.5,76.5C 106.5,75.8333 106.167,75.5 105.5,75.5C 104.167,72.8333 104.167,70.1667 105.5,67.5 Z"/></g>
<g><path style="opacity:1" fill="#dde1fa" d="M 127.5,61.5 C 127.833,61.5 128.167,61.5 128.5,61.5C 128.5,62.5 128.5,63.5 128.5,64.5C 128.5,69.1667 128.5,73.8333 128.5,78.5C 128.567,79.9587 128.234,81.2921 127.5,82.5C 126.833,83.5 126.167,84.5 125.5,85.5C 124.026,86.4363 123.026,87.7697 122.5,89.5C 121.518,86.0381 121.185,82.3714 121.5,78.5C 123.641,85.3331 124.974,84.9997 125.5,77.5C 125.5,75.8333 125.5,74.1667 125.5,72.5C 127.414,69.3157 128.08,65.649 127.5,61.5 Z"/></g>
<g><path style="opacity:1" fill="#c1d1f1" d="M 70.5,64.5 C 71.7537,66.3569 71.7537,68.3569 70.5,70.5C 71.727,71.5904 72.5604,72.9238 73,74.5C 73.69,73.2617 74.19,73.2617 74.5,74.5C 73.6128,78.0396 72.2795,81.3729 70.5,84.5C 69.5,85.1667 68.5,85.8333 67.5,86.5C 67.7728,82.1768 68.7728,78.0102 70.5,74C 69.8524,72.5603 69.5191,71.0603 69.5,69.5C 69.5,68.5 69.5,67.5 69.5,66.5C 70.3382,66.1583 70.6716,65.4916 70.5,64.5 Z"/></g>
<g><path style="opacity:1" fill="#d4d7f7" d="M 22.5,66.5 C 25.5867,70.7405 27.92,75.4072 29.5,80.5C 29.5,81.8333 28.8333,82.5 27.5,82.5C 27.6716,81.5084 27.3382,80.8417 26.5,80.5C 25.6916,77.5498 24.3582,74.8831 22.5,72.5C 21.044,69.7533 19.7107,66.92 18.5,64C 18.8333,63.5 19.1667,63 19.5,62.5C 20.5207,63.9014 21.5207,65.2347 22.5,66.5 Z"/></g>
<g><path style="opacity:1" fill="#c7d7f1" d="M 47.5,72.5 C 47.155,77.8779 46.4883,83.2112 45.5,88.5C 44.8333,87.1667 44.1667,85.8333 43.5,84.5C 41.9089,81.0388 41.2422,77.3721 41.5,73.5C 45.1704,85.8136 46.1704,85.4803 44.5,72.5C 44.3433,71.1266 44.51,69.7932 45,68.5C 45.6082,70.0664 46.4415,71.3998 47.5,72.5 Z"/></g>
<g><path style="opacity:1" fill="#d0d7f5" d="M 76.5,70.5 C 77.3764,70.3691 78.0431,70.7025 78.5,71.5C 76.8269,73.7615 77.1602,75.4282 79.5,76.5C 79.0764,80.0118 78.0764,83.3452 76.5,86.5C 75.8333,87.8333 75.1667,89.1667 74.5,90.5C 74.719,89.325 74.3857,88.325 73.5,87.5C 72.7124,88.7701 71.7124,89.7701 70.5,90.5C 70.5,88.5 70.5,86.5 70.5,84.5C 72.2795,81.3729 73.6128,78.0396 74.5,74.5C 76.1042,73.713 76.7709,72.3797 76.5,70.5 Z"/></g>
<g><path style="opacity:1" fill="#d9d7f7" d="M 114.5,64.5 C 115.272,65.6935 116.272,66.6935 117.5,67.5C 117.5,68.1667 117.5,68.8333 117.5,69.5C 115.088,69.6941 114.088,71.0274 114.5,73.5C 112.632,77.7083 109.965,81.3749 106.5,84.5C 105.833,84.8333 105.167,85.1667 104.5,85.5C 103.624,85.6309 102.957,85.2975 102.5,84.5C 104.909,82.0976 106.909,79.4309 108.5,76.5C 111.075,74.1547 112.075,71.1547 111.5,67.5C 112.272,66.3065 113.272,65.3065 114.5,64.5 Z"/></g>
<g><path style="opacity:0.067" fill="#e7e9f0" d="M 135.5,59.5 C 136.254,62.0227 136.92,64.6894 137.5,67.5C 136.732,71.4452 136.232,75.4452 136,79.5C 135.243,81.3146 134.41,82.9812 133.5,84.5C 133.768,82.901 133.434,81.5676 132.5,80.5C 131.833,80.5 131.5,80.1667 131.5,79.5C 131.5,79.1667 131.5,78.8333 131.5,78.5C 132.301,76.9582 132.634,75.2915 132.5,73.5C 132.5,71.8333 132.5,70.1667 132.5,68.5C 133.167,68.5 133.833,68.5 134.5,68.5C 135.477,65.7131 135.81,62.7131 135.5,59.5 Z"/></g>
<g><path style="opacity:1" fill="#a6d2f3" d="M 51.5,73.5 C 52.404,74.209 52.7373,75.209 52.5,76.5C 52.8799,78.698 52.2132,80.3646 50.5,81.5C 49.8902,80.609 49.5569,79.609 49.5,78.5C 50.9313,77.2196 51.5979,75.5529 51.5,73.5 Z"/></g>
<g><path style="opacity:1" fill="#e3d4f9" d="M 81.5,79.5 C 80.5,82.1667 79.5,84.8333 78.5,87.5C 78.5,87.8333 78.5,88.1667 78.5,88.5C 77.1667,88.5 76.5,87.8333 76.5,86.5C 78.0764,83.3452 79.0764,80.0118 79.5,76.5C 80.1577,75.6016 80.8243,74.6016 81.5,73.5C 82.451,72.6744 83.451,72.5078 84.5,73C 83.5877,75.2508 82.5877,77.4175 81.5,79.5 Z"/></g>
<g><path style="opacity:1" fill="#ccd2f1" d="M 102.5,66.5 C 103.209,67.404 104.209,67.7373 105.5,67.5C 104.167,70.1667 104.167,72.8333 105.5,75.5C 100.062,82.7226 94.3957,89.7226 88.5,96.5C 88.818,92.1988 90.4847,88.5322 93.5,85.5C 93.3505,84.448 93.5172,83.448 94,82.5C 97.7408,79.7978 100.907,76.6312 103.5,73C 103.138,71.7753 102.638,70.6086 102,69.5C 99.3939,70.7298 97.2273,72.3965 95.5,74.5C 95.1706,71.7718 95.8372,69.4385 97.5,67.5C 97.3691,68.3764 97.7025,69.0431 98.5,69.5C 99.8518,68.4756 101.185,67.4756 102.5,66.5 Z"/></g>
<g><path style="opacity:1" fill="#bec9ee" d="M 90.5,74.5 C 91.6737,75.5137 92.3404,76.847 92.5,78.5C 90.1829,82.1464 87.5162,85.4797 84.5,88.5C 85.3049,83.2224 87.3049,78.5558 90.5,74.5 Z"/></g>
<g><path style="opacity:1" fill="#c8d1f1" d="M 128.5,64.5 C 129.166,68.3525 129.833,72.3525 130.5,76.5C 131.176,75.3984 131.842,74.3984 132.5,73.5C 132.634,75.2915 132.301,76.9582 131.5,78.5C 130.5,78.5 129.5,78.5 128.5,78.5C 128.5,73.8333 128.5,69.1667 128.5,64.5 Z"/></g>
<g><path style="opacity:1" fill="#bbc7e6" d="M 114.5,73.5 C 115.167,73.8333 115.833,74.1667 116.5,74.5C 116.567,75.9587 116.234,77.2921 115.5,78.5C 114.728,79.6935 113.728,80.6935 112.5,81.5C 110.608,82.7017 108.774,84.035 107,85.5C 106.601,85.2716 106.435,84.9382 106.5,84.5C 109.965,81.3749 112.632,77.7083 114.5,73.5 Z"/></g>
<g><path style="opacity:1" fill="#c4d7f1" d="M 26.5,86.5 C 26.5321,89.0758 25.8654,91.4091 24.5,93.5C 22.6098,91.4099 20.9431,89.0765 19.5,86.5C 18.5713,85.3112 18.238,83.9778 18.5,82.5C 18.25,79.786 18.0833,77.1194 18,74.5C 19.5095,75.0897 21.0095,75.7564 22.5,76.5C 24.1823,80.1061 25.5156,83.4394 26.5,86.5 Z"/></g>
<g><path style="opacity:1" fill="#c1d8f0" d="M 34.5,78.5 C 37.7756,79.1216 39.1089,81.1216 38.5,84.5C 37.3702,86.3146 36.7036,88.3146 36.5,90.5C 35.9851,88.2488 34.9851,86.2488 33.5,84.5C 33.1667,83.1667 32.8333,81.8333 32.5,80.5C 34.2027,81.6602 34.8693,80.9935 34.5,78.5 Z"/></g>
<g><path style="opacity:1" fill="#cbddf5" d="M 128.5,78.5 C 129.5,78.5 130.5,78.5 131.5,78.5C 131.5,78.8333 131.5,79.1667 131.5,79.5C 130.833,81.1667 130.167,82.8333 129.5,84.5C 129.5,83.1667 128.833,82.5 127.5,82.5C 128.234,81.2921 128.567,79.9587 128.5,78.5 Z"/></g>
<g><path style="opacity:1" fill="#caddf8" d="M 115.5,78.5 C 115.9,80.3767 116.9,81.8767 118.5,83C 116.9,84.1233 115.9,85.6233 115.5,87.5C 114.935,89.42 113.935,91.0867 112.5,92.5C 111.508,92.6716 110.842,92.3382 110.5,91.5C 111.15,91.1961 111.817,90.8627 112.5,90.5C 113.221,88.314 113.887,86.1474 114.5,84C 113.906,83.5357 113.239,83.369 112.5,83.5C 112.5,82.8333 112.5,82.1667 112.5,81.5C 113.728,80.6935 114.728,79.6935 115.5,78.5 Z"/></g>
<g><path style="opacity:1" fill="#bdd1f0" d="M 47.5,72.5 C 48.7384,74.2143 49.405,76.2143 49.5,78.5C 49.5569,79.609 49.8902,80.609 50.5,81.5C 49.7659,82.7079 49.4326,84.0413 49.5,85.5C 49.5,86.1667 49.5,86.8333 49.5,87.5C 48.8333,88.1667 48.1667,88.8333 47.5,89.5C 46.8333,89.1667 46.1667,88.8333 45.5,88.5C 46.4883,83.2112 47.155,77.8779 47.5,72.5 Z"/></g>
<g><path style="opacity:1" fill="#c9d4f1" d="M 29.5,80.5 C 30.4725,82.1392 31.8058,83.4726 33.5,84.5C 34.9851,86.2488 35.9851,88.2488 36.5,90.5C 37.4408,92.0495 38.1075,93.7162 38.5,95.5C 37.1733,94.1999 35.84,92.8665 34.5,91.5C 34.1667,91.6667 33.8333,91.8333 33.5,92C 35.0368,93.1096 35.7035,94.6096 35.5,96.5C 35.1667,96.5 34.8333,96.5 34.5,96.5C 33.9744,94.7697 32.9744,93.4363 31.5,92.5C 31.0302,88.799 29.6969,85.4656 27.5,82.5C 28.8333,82.5 29.5,81.8333 29.5,80.5 Z"/></g>
<g><path style="opacity:1" fill="#afc4eb" d="M 52.5,76.5 C 53.4682,78.6074 53.8016,80.9407 53.5,83.5C 52.713,85.1042 51.3797,85.7709 49.5,85.5C 49.4326,84.0413 49.7659,82.7079 50.5,81.5C 52.2132,80.3646 52.8799,78.698 52.5,76.5 Z"/></g>
<g><path style="opacity:1" fill="#c7d3f2" d="M 56.5,78.5 C 56.5858,79.4959 56.2524,80.3292 55.5,81C 57.2189,82.8705 58.2189,85.0372 58.5,87.5C 56.744,88.5521 56.0773,90.2188 56.5,92.5C 55.8354,90.6309 55.1687,88.6309 54.5,86.5C 53.7124,87.7701 52.7124,88.7701 51.5,89.5C 51.1667,88.5 50.5,87.8333 49.5,87.5C 49.5,86.8333 49.5,86.1667 49.5,85.5C 51.3797,85.7709 52.713,85.1042 53.5,83.5C 53.9724,81.4687 54.9724,79.8021 56.5,78.5 Z"/></g>
<g><path style="opacity:1" fill="#c8daf5" d="M 69.5,69.5 C 69.5191,71.0603 69.8524,72.5603 70.5,74C 68.7728,78.0102 67.7728,82.1768 67.5,86.5C 66.3434,88.678 65.0101,90.678 63.5,92.5C 63.5,91.8333 63.5,91.1667 63.5,90.5C 64.844,88.8151 64.6773,87.1484 63,85.5C 62.501,81.1794 62.3343,76.8461 62.5,72.5C 62.5,71.8333 62.8333,71.5 63.5,71.5C 63.5078,75.5945 63.6744,79.9279 64,84.5C 65.9489,80.3707 67.1156,76.0373 67.5,71.5C 67.5,70.1667 68.1667,69.5 69.5,69.5 Z"/></g>
<g><path style="opacity:1" fill="#d3d9f7" d="M 90.5,71.5 C 90.5,72.5 90.5,73.5 90.5,74.5C 87.3049,78.5558 85.3049,83.2224 84.5,88.5C 83.2719,89.3065 82.2719,90.3065 81.5,91.5C 81.4456,89.368 80.4456,88.0347 78.5,87.5C 79.5,84.8333 80.5,82.1667 81.5,79.5C 82.1667,79.1667 82.8333,78.8333 83.5,78.5C 83.3505,79.552 83.5172,80.552 84,81.5C 84.3333,81.1667 84.6667,80.8333 85,80.5C 85.8428,76.7996 87.6761,73.7996 90.5,71.5 Z"/></g>
<g><path style="opacity:1" fill="#d2d2f3" d="M 92.5,78.5 C 92.8333,78.5 93.1667,78.5 93.5,78.5C 92.3773,80.9787 92.3773,83.312 93.5,85.5C 90.4847,88.5322 88.818,92.1988 88.5,96.5C 87.1667,96.5 86.5,95.8333 86.5,94.5C 86.3059,90.9952 85.3059,90.6618 83.5,93.5C 82.1667,93.5 81.5,92.8333 81.5,91.5C 82.2719,90.3065 83.2719,89.3065 84.5,88.5C 87.5162,85.4797 90.1829,82.1464 92.5,78.5 Z"/></g>
<g><path style="opacity:1" fill="#bed4f0" d="M 26.5,80.5 C 27.3382,80.8417 27.6716,81.5084 27.5,82.5C 29.6969,85.4656 31.0302,88.799 31.5,92.5C 30.5084,92.3284 29.8417,92.6618 29.5,93.5C 27.7973,92.3398 27.1307,93.0065 27.5,95.5C 26.5,94.8333 25.5,94.1667 24.5,93.5C 25.8654,91.4091 26.5321,89.0758 26.5,86.5C 26.9539,84.7411 26.9539,82.7411 26.5,80.5 Z"/></g>
<g><path style="opacity:1" fill="#cdd9f6" d="M 61.5,69.5 C 61.2627,70.791 61.596,71.791 62.5,72.5C 62.3343,76.8461 62.501,81.1794 63,85.5C 64.6773,87.1484 64.844,88.8151 63.5,90.5C 63.5323,88.3812 62.5323,87.0478 60.5,86.5C 59.3852,81.2501 59.2185,75.9167 60,70.5C 60.3826,69.944 60.8826,69.6107 61.5,69.5 Z"/></g>
<g><path style="opacity:1" fill="#bbd2f0" d="M 127.5,82.5 C 128.833,82.5 129.5,83.1667 129.5,84.5C 128.167,85.5 126.833,86.5 125.5,87.5C 125.5,86.8333 125.5,86.1667 125.5,85.5C 126.167,84.5 126.833,83.5 127.5,82.5 Z"/></g>
<g><path style="opacity:1" fill="#bed7f3" d="M 70.5,84.5 C 70.5,86.5 70.5,88.5 70.5,90.5C 69.1093,92.5714 67.276,94.2381 65,95.5C 63.9614,94.7562 63.4614,93.7562 63.5,92.5C 65.0101,90.678 66.3434,88.678 67.5,86.5C 68.5,85.8333 69.5,85.1667 70.5,84.5 Z"/></g>
<g><path style="opacity:1" fill="#d7dbf7" d="M 106.5,76.5 C 107.167,76.5 107.833,76.5 108.5,76.5C 106.909,79.4309 104.909,82.0976 102.5,84.5C 102.957,85.2975 103.624,85.6309 104.5,85.5C 101.747,90.0076 98.7467,94.3409 95.5,98.5C 92.477,101.178 91.8103,100.512 93.5,96.5C 93.6716,95.5084 93.3382,94.8417 92.5,94.5C 96.7846,88.2139 101.451,82.2139 106.5,76.5 Z"/></g>
<g><path style="opacity:1" fill="#bad5f4" d="M 112.5,83.5 C 113.239,83.369 113.906,83.5357 114.5,84C 113.887,86.1474 113.221,88.314 112.5,90.5C 111.817,90.8627 111.15,91.1961 110.5,91.5C 110.5,90.8333 110.5,90.1667 110.5,89.5C 110.5,88.5 110.5,87.5 110.5,86.5C 112.048,86.1788 112.715,85.1788 112.5,83.5 Z"/></g>
<g><path style="opacity:1" fill="#c0ceef" d="M 60.5,86.5 C 62.5323,87.0478 63.5323,88.3812 63.5,90.5C 63.5,91.1667 63.5,91.8333 63.5,92.5C 62.6554,93.6715 61.9887,95.0048 61.5,96.5C 60.71,95.3915 60.21,94.0581 60,92.5C 59.2303,91.4019 58.397,91.4019 57.5,92.5C 57.1667,92.5 56.8333,92.5 56.5,92.5C 56.0773,90.2188 56.744,88.5521 58.5,87.5C 59.4916,87.6716 60.1583,87.3382 60.5,86.5 Z"/></g>
<g><path style="opacity:0.514" fill="#dde7f1" d="M 15.5,71.5 C 16.2248,75.231 17.2248,78.8977 18.5,82.5C 18.238,83.9778 18.5713,85.3112 19.5,86.5C 20.9431,89.0765 22.6098,91.4099 24.5,93.5C 26.0909,96.3516 27.4242,99.3516 28.5,102.5C 24.4432,97.4102 20.6098,92.0769 17,86.5C 16.187,84.5643 15.687,82.5643 15.5,80.5C 15.5,77.5 15.5,74.5 15.5,71.5 Z"/></g>
<g><path style="opacity:1" fill="#cad2f0" d="M 112.5,81.5 C 112.5,82.1667 112.5,82.8333 112.5,83.5C 112.715,85.1788 112.048,86.1788 110.5,86.5C 108.025,87.6874 107.025,89.6874 107.5,92.5C 106.5,92.5 105.5,92.5 104.5,92.5C 104.565,92.0618 104.399,91.7284 104,91.5C 101.833,93.6667 99.6667,95.8333 97.5,98C 98.448,98.4828 99.448,98.6495 100.5,98.5C 98.8333,99.8333 97.1667,99.8333 95.5,98.5C 98.7467,94.3409 101.747,90.0076 104.5,85.5C 105.167,85.1667 105.833,84.8333 106.5,84.5C 106.435,84.9382 106.601,85.2716 107,85.5C 108.774,84.035 110.608,82.7017 112.5,81.5 Z"/></g>
<g><path style="opacity:1" fill="#d4d8f6" d="M 119.5,73.5 C 120.309,75.0276 120.976,76.6943 121.5,78.5C 121.185,82.3714 121.518,86.0381 122.5,89.5C 122.217,90.2891 121.717,90.9558 121,91.5C 120.802,89.6183 120.302,87.9516 119.5,86.5C 118.041,86.4326 116.708,86.7659 115.5,87.5C 115.9,85.6233 116.9,84.1233 118.5,83C 116.9,81.8767 115.9,80.3767 115.5,78.5C 116.234,77.2921 116.567,75.9587 116.5,74.5C 117.791,74.7373 118.791,74.404 119.5,73.5 Z"/></g>
<g><path style="opacity:1" fill="#bfdaf5" d="M 56.5,92.5 C 56.8333,92.5 57.1667,92.5 57.5,92.5C 57.9746,95.0821 57.3079,97.0821 55.5,98.5C 54.3503,95.7018 53.017,93.0352 51.5,90.5C 51.5,90.1667 51.5,89.8333 51.5,89.5C 52.7124,88.7701 53.7124,87.7701 54.5,86.5C 55.1687,88.6309 55.8354,90.6309 56.5,92.5 Z"/></g>
<g><path style="opacity:1" fill="#c4cef0" d="M 43.5,84.5 C 44.1667,85.8333 44.8333,87.1667 45.5,88.5C 46.1667,88.8333 46.8333,89.1667 47.5,89.5C 47.5,90.8333 47.5,92.1667 47.5,93.5C 46.5987,94.2905 45.9321,95.2905 45.5,96.5C 43.744,94.751 42.4106,92.751 41.5,90.5C 41.5,90.1667 41.5,89.8333 41.5,89.5C 41.5,88.8333 41.5,88.1667 41.5,87.5C 42.1174,87.6107 42.6174,87.944 43,88.5C 43.49,87.2068 43.6567,85.8734 43.5,84.5 Z"/></g>
<g><path style="opacity:1" fill="#b2c1e6" d="M 49.5,87.5 C 50.5,87.8333 51.1667,88.5 51.5,89.5C 51.5,89.8333 51.5,90.1667 51.5,90.5C 51.5,92.8333 51.5,95.1667 51.5,97.5C 50.8333,96.8333 50.1667,96.1667 49.5,95.5C 49.1667,94.5 48.5,93.8333 47.5,93.5C 47.5,92.1667 47.5,90.8333 47.5,89.5C 48.1667,88.8333 48.8333,88.1667 49.5,87.5 Z"/></g>
<g><path style="opacity:1" fill="#d7d8f6" d="M 76.5,86.5 C 76.5,87.8333 77.1667,88.5 78.5,88.5C 76.6503,91.5594 76.317,94.7261 77.5,98C 76.9056,98.4643 76.2389,98.631 75.5,98.5C 72.538,97.4484 69.8714,97.4484 67.5,98.5C 67.281,97.325 67.6143,96.325 68.5,95.5C 69.7202,96.7111 70.8869,96.7111 72,95.5C 72.3736,93.5087 73.207,91.842 74.5,90.5C 75.1667,89.1667 75.8333,87.8333 76.5,86.5 Z"/></g>
<g><path style="opacity:1" fill="#b9cbea" d="M 38.5,84.5 C 39.3127,86.2608 40.3127,87.9275 41.5,89.5C 41.5,89.8333 41.5,90.1667 41.5,90.5C 39.3464,92.158 39.0131,94.158 40.5,96.5C 39.8333,96.1667 39.1667,95.8333 38.5,95.5C 38.1075,93.7162 37.4408,92.0495 36.5,90.5C 36.7036,88.3146 37.3702,86.3146 38.5,84.5 Z"/></g>
<g><path style="opacity:1" fill="#c7d3f0" d="M 47.5,93.5 C 48.5,93.8333 49.1667,94.5 49.5,95.5C 49.6465,98.4431 50.3132,101.276 51.5,104C 50.3521,105.726 49.1855,105.559 48,103.5C 46.8638,101.257 46.0305,98.9237 45.5,96.5C 45.9321,95.2905 46.5987,94.2905 47.5,93.5 Z"/></g>
<g><path style="opacity:1" fill="#c1c9e8" d="M 104.5,92.5 C 103.66,94.8525 102.326,96.8525 100.5,98.5C 99.448,98.6495 98.448,98.4828 97.5,98C 99.6667,95.8333 101.833,93.6667 104,91.5C 104.399,91.7284 104.565,92.0618 104.5,92.5 Z"/></g>
<g><path style="opacity:1" fill="#cad1ee" d="M 110.5,89.5 C 110.5,90.1667 110.5,90.8333 110.5,91.5C 110.842,92.3382 111.508,92.6716 112.5,92.5C 110.906,95.7642 108.573,98.4309 105.5,100.5C 104.89,99.609 104.557,98.609 104.5,97.5C 106.885,95.1162 108.885,92.4495 110.5,89.5 Z"/></g>
<g><path style="opacity:1" fill="#dbd9f7" d="M 119.5,86.5 C 117.634,90.2584 115.301,93.5917 112.5,96.5C 107.167,101.5 101.833,106.5 96.5,111.5C 95.209,111.737 94.209,111.404 93.5,110.5C 98.3813,108.291 102.381,104.957 105.5,100.5C 108.573,98.4309 110.906,95.7642 112.5,92.5C 113.935,91.0867 114.935,89.42 115.5,87.5C 116.708,86.7659 118.041,86.4326 119.5,86.5 Z"/></g>
<g><path style="opacity:1" fill="#c8d1ee" d="M 125.5,85.5 C 125.5,86.1667 125.5,86.8333 125.5,87.5C 122.917,90.9974 120.584,94.6641 118.5,98.5C 116.372,100.403 114.039,102.069 111.5,103.5C 110.614,102.675 110.281,101.675 110.5,100.5C 111.6,99.3951 112.267,98.0618 112.5,96.5C 115.301,93.5917 117.634,90.2584 119.5,86.5C 120.302,87.9516 120.802,89.6183 121,91.5C 121.717,90.9558 122.217,90.2891 122.5,89.5C 123.026,87.7697 124.026,86.4363 125.5,85.5 Z"/></g>
<g><path style="opacity:1" fill="#c2d1ee" d="M 74.5,90.5 C 73.207,91.842 72.3736,93.5087 72,95.5C 70.8869,96.7111 69.7202,96.7111 68.5,95.5C 67.6143,96.325 67.281,97.325 67.5,98.5C 67.1667,98.5 66.8333,98.5 66.5,98.5C 66.631,97.7611 66.4643,97.0944 66,96.5C 64.8873,97.305 63.7206,97.9717 62.5,98.5C 62.1667,97.8333 61.8333,97.1667 61.5,96.5C 61.9887,95.0048 62.6554,93.6715 63.5,92.5C 63.4614,93.7562 63.9614,94.7562 65,95.5C 67.276,94.2381 69.1093,92.5714 70.5,90.5C 71.7124,89.7701 72.7124,88.7701 73.5,87.5C 74.3857,88.325 74.719,89.325 74.5,90.5 Z"/></g>
<g><path style="opacity:1" fill="#cdd4f0" d="M 61.5,96.5 C 61.8333,97.1667 62.1667,97.8333 62.5,98.5C 62.5,99.1667 62.5,99.8333 62.5,100.5C 61.8501,100.196 61.1835,99.8627 60.5,99.5C 59.8333,101.167 59.1667,102.833 58.5,104.5C 57.8503,102.816 56.8503,101.483 55.5,100.5C 55.5,99.8333 55.5,99.1667 55.5,98.5C 57.3079,97.0821 57.9746,95.0821 57.5,92.5C 58.397,91.4019 59.2303,91.4019 60,92.5C 60.21,94.0581 60.71,95.3915 61.5,96.5 Z"/></g>
<g><path style="opacity:1" fill="#d6d9f1" d="M 38.5,95.5 C 39.1667,95.8333 39.8333,96.1667 40.5,96.5C 41.5,98.5 42.5,100.5 43.5,102.5C 42.5,102.5 41.5,102.5 40.5,102.5C 38.3674,100.909 36.7007,98.9095 35.5,96.5C 35.7035,94.6096 35.0368,93.1096 33.5,92C 33.8333,91.8333 34.1667,91.6667 34.5,91.5C 35.84,92.8665 37.1733,94.1999 38.5,95.5 Z"/></g>
<g><path style="opacity:1" fill="#b1bbdc" d="M 41.5,90.5 C 42.4106,92.751 43.744,94.751 45.5,96.5C 46.0305,98.9237 46.8638,101.257 48,103.5C 49.1855,105.559 50.3521,105.726 51.5,104C 50.3132,101.276 49.6465,98.4431 49.5,95.5C 50.1667,96.1667 50.8333,96.8333 51.5,97.5C 52.2411,100.413 52.7411,103.413 53,106.5C 53.3826,107.056 53.8826,107.389 54.5,107.5C 55.1239,107.917 55.4573,108.584 55.5,109.5C 55.2528,110.713 54.5862,111.38 53.5,111.5C 52.1283,110.488 50.795,109.488 49.5,108.5C 48.2825,107.839 46.9492,107.172 45.5,106.5C 45.0057,104.974 44.339,103.641 43.5,102.5C 42.5,100.5 41.5,98.5 40.5,96.5C 39.0131,94.158 39.3464,92.158 41.5,90.5 Z"/></g>
<g><path style="opacity:0.996" fill="#b2d2f0" d="M 29.5,93.5 C 32.0142,95.7988 32.0142,98.1321 29.5,100.5C 28.5592,98.9505 27.8925,97.2838 27.5,95.5C 27.1307,93.0065 27.7973,92.3398 29.5,93.5 Z"/></g>
<g><path style="opacity:1" fill="#e0e1f6" d="M 75.5,98.5 C 73.6469,101.208 72.6469,104.208 72.5,107.5C 72.5,107.833 72.5,108.167 72.5,108.5C 69.4488,107.601 67.4488,105.601 66.5,102.5C 66.5,101.167 66.5,99.8333 66.5,98.5C 66.8333,98.5 67.1667,98.5 67.5,98.5C 69.8714,97.4484 72.538,97.4484 75.5,98.5 Z"/></g>
<g><path style="opacity:0.996" fill="#d7d9f2" d="M 131.5,79.5 C 131.5,80.1667 131.833,80.5 132.5,80.5C 128.831,90.504 122.831,98.8373 114.5,105.5C 115.833,103.167 117.167,100.833 118.5,98.5C 120.584,94.6641 122.917,90.9974 125.5,87.5C 126.833,86.5 128.167,85.5 129.5,84.5C 130.167,82.8333 130.833,81.1667 131.5,79.5 Z"/></g>
<g><path style="opacity:0.98" fill="#c3d1e5" d="M 24.5,93.5 C 25.5,94.1667 26.5,94.8333 27.5,95.5C 27.8925,97.2838 28.5592,98.9505 29.5,100.5C 30.1667,101.167 30.8333,101.833 31.5,102.5C 31.5569,103.609 31.8902,104.609 32.5,105.5C 32.1667,105.5 31.8333,105.5 31.5,105.5C 30.1667,104.833 29.1667,103.833 28.5,102.5C 27.4242,99.3516 26.0909,96.3516 24.5,93.5 Z"/></g>
<g><path style="opacity:0.675" fill="#e4e6f2" d="M 132.5,80.5 C 133.434,81.5676 133.768,82.901 133.5,84.5C 125.134,100.533 112.8,112.533 96.5,120.5C 96.5,120.167 96.5,119.833 96.5,119.5C 97.1667,118.5 97.8333,117.5 98.5,116.5C 104.566,113.808 109.9,110.141 114.5,105.5C 122.831,98.8373 128.831,90.504 132.5,80.5 Z"/></g>
<g><path style="opacity:1" fill="#b9cbeb" d="M 51.5,90.5 C 53.017,93.0352 54.3503,95.7018 55.5,98.5C 55.5,99.1667 55.5,99.8333 55.5,100.5C 54.3501,99.1498 53.6834,99.3164 53.5,101C 54.2865,103.099 54.6199,105.266 54.5,107.5C 53.8826,107.389 53.3826,107.056 53,106.5C 52.7411,103.413 52.2411,100.413 51.5,97.5C 51.5,95.1667 51.5,92.8333 51.5,90.5 Z"/></g>
<g><path style="opacity:1" fill="#bcc4e5" d="M 66.5,98.5 C 66.5,99.8333 66.5,101.167 66.5,102.5C 65.5,103.167 64.5,103.833 63.5,104.5C 62.5655,103.432 62.2322,102.099 62.5,100.5C 62.5,99.8333 62.5,99.1667 62.5,98.5C 63.7206,97.9717 64.8873,97.305 66,96.5C 66.4643,97.0944 66.631,97.7611 66.5,98.5 Z"/></g>
<g><path style="opacity:1" fill="#c9d7f2" d="M 78.5,87.5 C 80.4456,88.0347 81.4456,89.368 81.5,91.5C 81.5,92.8333 82.1667,93.5 83.5,93.5C 81.1919,96.8153 78.8586,100.149 76.5,103.5C 76.8333,103.833 77.1667,104.167 77.5,104.5C 79.3604,103.74 81.027,102.74 82.5,101.5C 82.5,102.167 82.5,102.833 82.5,103.5C 81.1667,104.5 79.8333,105.5 78.5,106.5C 76.3855,107.32 74.3855,107.653 72.5,107.5C 72.6469,104.208 73.6469,101.208 75.5,98.5C 76.2389,98.631 76.9056,98.4643 77.5,98C 76.317,94.7261 76.6503,91.5594 78.5,88.5C 78.5,88.1667 78.5,87.8333 78.5,87.5 Z"/></g>
<g><path style="opacity:1" fill="#c4cce9" d="M 105.5,75.5 C 106.167,75.5 106.5,75.8333 106.5,76.5C 101.451,82.2139 96.7846,88.2139 92.5,94.5C 91.2003,97.4323 89.2003,99.7656 86.5,101.5C 85.9569,101.44 85.6236,101.107 85.5,100.5C 86.5244,99.1482 87.5244,97.8149 88.5,96.5C 94.3957,89.7226 100.062,82.7226 105.5,75.5 Z"/></g>
<g><path style="opacity:1" fill="#bdd2ef" d="M 31.5,92.5 C 32.9744,93.4363 33.9744,94.7697 34.5,96.5C 33.6236,96.3691 32.9569,96.7025 32.5,97.5C 34.5798,99.5732 36.2464,101.907 37.5,104.5C 37.631,105.239 37.4643,105.906 37,106.5C 35.2258,105.035 33.3925,103.702 31.5,102.5C 30.8333,101.833 30.1667,101.167 29.5,100.5C 32.0142,98.1321 32.0142,95.7988 29.5,93.5C 29.8417,92.6618 30.5084,92.3284 31.5,92.5 Z"/></g>
<g><path style="opacity:1" fill="#ced7f3" d="M 86.5,94.5 C 86.5,95.8333 87.1667,96.5 88.5,96.5C 87.5244,97.8149 86.5244,99.1482 85.5,100.5C 85.6236,101.107 85.9569,101.44 86.5,101.5C 85.3285,102.345 83.9952,103.011 82.5,103.5C 82.5,102.833 82.5,102.167 82.5,101.5C 83.0787,98.6689 84.412,96.3356 86.5,94.5 Z"/></g>
<g><path style="opacity:1" fill="#d8d8f3" d="M 110.5,86.5 C 110.5,87.5 110.5,88.5 110.5,89.5C 108.885,92.4495 106.885,95.1162 104.5,97.5C 102.738,99.7005 100.404,100.867 97.5,101C 97.9117,104.169 96.5783,106.669 93.5,108.5C 91.0248,107.313 88.6914,107.647 86.5,109.5C 86.0825,108.778 85.4158,108.278 84.5,108C 87.7454,104.267 90.7454,100.434 93.5,96.5C 91.8103,100.512 92.477,101.178 95.5,98.5C 97.1667,99.8333 98.8333,99.8333 100.5,98.5C 102.326,96.8525 103.66,94.8525 104.5,92.5C 105.5,92.5 106.5,92.5 107.5,92.5C 107.025,89.6874 108.025,87.6874 110.5,86.5 Z"/></g>
<g><path style="opacity:1" fill="#b0bbdd" d="M 34.5,96.5 C 34.8333,96.5 35.1667,96.5 35.5,96.5C 36.7007,98.9095 38.3674,100.909 40.5,102.5C 40.969,105.643 42.6356,107.977 45.5,109.5C 45.5,109.833 45.5,110.167 45.5,110.5C 45.1034,111.525 44.4368,111.692 43.5,111C 40.9255,109.263 38.9255,107.096 37.5,104.5C 36.2464,101.907 34.5798,99.5732 32.5,97.5C 32.9569,96.7025 33.6236,96.3691 34.5,96.5 Z"/></g>
<g><path style="opacity:1" fill="#badaf1" d="M 86.5,94.5 C 84.412,96.3356 83.0787,98.6689 82.5,101.5C 81.027,102.74 79.3604,103.74 77.5,104.5C 77.1667,104.167 76.8333,103.833 76.5,103.5C 78.8586,100.149 81.1919,96.8153 83.5,93.5C 85.3059,90.6618 86.3059,90.9952 86.5,94.5 Z"/></g>
<g><path style="opacity:1" fill="#ced3ee" d="M 104.5,97.5 C 104.557,98.609 104.89,99.609 105.5,100.5C 102.381,104.957 98.3813,108.291 93.5,110.5C 93.5,109.833 93.5,109.167 93.5,108.5C 96.5783,106.669 97.9117,104.169 97.5,101C 100.404,100.867 102.738,99.7005 104.5,97.5 Z"/></g>
<g><path style="opacity:1" fill="#dddff7" d="M 92.5,94.5 C 93.3382,94.8417 93.6716,95.5084 93.5,96.5C 90.7454,100.434 87.7454,104.267 84.5,108C 85.4158,108.278 86.0825,108.778 86.5,109.5C 86.5,110.167 86.5,110.833 86.5,111.5C 83.2637,111.482 80.597,110.482 78.5,108.5C 78.5,107.833 78.5,107.167 78.5,106.5C 79.8333,105.5 81.1667,104.5 82.5,103.5C 83.9952,103.011 85.3285,102.345 86.5,101.5C 89.2003,99.7656 91.2003,97.4323 92.5,94.5 Z"/></g>
<g><path style="opacity:1" fill="#ccd1ed" d="M 118.5,98.5 C 117.167,100.833 115.833,103.167 114.5,105.5C 109.9,110.141 104.566,113.808 98.5,116.5C 97.8333,116.5 97.5,116.167 97.5,115.5C 100.844,112.999 104.344,110.666 108,108.5C 108.348,106.86 107.848,105.527 106.5,104.5C 107.5,102.833 108.833,101.5 110.5,100.5C 110.281,101.675 110.614,102.675 111.5,103.5C 114.039,102.069 116.372,100.403 118.5,98.5 Z"/></g>
<g><path style="opacity:1" fill="#bfcceb" d="M 40.5,102.5 C 41.5,102.5 42.5,102.5 43.5,102.5C 44.339,103.641 45.0057,104.974 45.5,106.5C 46.9492,107.172 48.2825,107.839 49.5,108.5C 47.901,108.232 46.5676,108.566 45.5,109.5C 42.6356,107.977 40.969,105.643 40.5,102.5 Z"/></g>
<g><path style="opacity:1" fill="#daddf3" d="M 62.5,100.5 C 62.2322,102.099 62.5655,103.432 63.5,104.5C 63.0147,108.901 60.6814,110.567 56.5,109.5C 55.8413,106.545 55.5079,103.545 55.5,100.5C 56.8503,101.483 57.8503,102.816 58.5,104.5C 59.1667,102.833 59.8333,101.167 60.5,99.5C 61.1835,99.8627 61.8501,100.196 62.5,100.5 Z"/></g>
<g><path style="opacity:0.278" fill="#e4e8f0" d="M 31.5,105.5 C 31.8333,105.5 32.1667,105.5 32.5,105.5C 33.9063,105.973 34.573,106.973 34.5,108.5C 32.5,108.5 31.5,107.5 31.5,105.5 Z"/></g>
<g><path style="opacity:1" fill="#d2dcf1" d="M 106.5,104.5 C 107.848,105.527 108.348,106.86 108,108.5C 104.344,110.666 100.844,112.999 97.5,115.5C 93.0682,116.598 90.4016,119.264 89.5,123.5C 87.6412,123.539 86.3079,122.706 85.5,121C 88.4944,117.157 92.1611,114.324 96.5,112.5C 100.698,110.974 104.032,108.307 106.5,104.5 Z"/></g>
<g><path style="opacity:1" fill="#bac2e1" d="M 31.5,102.5 C 33.3925,103.702 35.2258,105.035 37,106.5C 37.4643,105.906 37.631,105.239 37.5,104.5C 38.9255,107.096 40.9255,109.263 43.5,111C 44.4368,111.692 45.1034,111.525 45.5,110.5C 46.0431,110.56 46.3764,110.893 46.5,111.5C 45.675,112.386 44.675,112.719 43.5,112.5C 40.6484,110.909 37.6484,109.576 34.5,108.5C 34.573,106.973 33.9063,105.973 32.5,105.5C 31.8902,104.609 31.5569,103.609 31.5,102.5 Z"/></g>
<g><path style="opacity:1" fill="#d2d4f0" d="M 66.5,102.5 C 67.4488,105.601 69.4488,107.601 72.5,108.5C 72.5,109.167 72.1667,109.5 71.5,109.5C 69.549,109.773 68.049,109.107 67,107.5C 66.3378,108.984 65.5045,110.317 64.5,111.5C 61.9407,111.198 59.6074,111.532 57.5,112.5C 56.596,111.791 56.2627,110.791 56.5,109.5C 60.6814,110.567 63.0147,108.901 63.5,104.5C 64.5,103.833 65.5,103.167 66.5,102.5 Z"/></g>
<g><path style="opacity:1" fill="#b4bede" d="M 78.5,106.5 C 78.5,107.167 78.5,107.833 78.5,108.5C 77.3591,110.243 75.6924,111.243 73.5,111.5C 72.2867,111.253 71.62,110.586 71.5,109.5C 72.1667,109.5 72.5,109.167 72.5,108.5C 72.5,108.167 72.5,107.833 72.5,107.5C 74.3855,107.653 76.3855,107.32 78.5,106.5 Z"/></g>
<g><path style="opacity:1" fill="#cbc9e5" d="M 112.5,96.5 C 112.267,98.0618 111.6,99.3951 110.5,100.5C 108.833,101.5 107.5,102.833 106.5,104.5C 104.032,108.307 100.698,110.974 96.5,112.5C 96.5,112.167 96.5,111.833 96.5,111.5C 101.833,106.5 107.167,101.5 112.5,96.5 Z"/></g>
<g><path style="opacity:0.996" fill="#c8ccdf" d="M 34.5,108.5 C 37.6484,109.576 40.6484,110.909 43.5,112.5C 43.5,113.167 43.5,113.833 43.5,114.5C 42.8333,114.5 42.1667,114.5 41.5,114.5C 40.7377,112.738 39.4044,111.738 37.5,111.5C 36.1667,110.833 35.1667,109.833 34.5,108.5 Z"/></g>
<g><path style="opacity:1" fill="#b5bede" d="M 55.5,100.5 C 55.5079,103.545 55.8413,106.545 56.5,109.5C 56.2627,110.791 56.596,111.791 57.5,112.5C 57.6107,113.117 57.944,113.617 58.5,114C 62.1135,114.936 65.7802,115.436 69.5,115.5C 68.6261,116.525 67.4595,117.192 66,117.5C 63.5661,116.678 61.0661,116.344 58.5,116.5C 57.1667,115.167 55.8333,113.833 54.5,112.5C 53.8333,112.5 53.5,112.167 53.5,111.5C 54.5862,111.38 55.2528,110.713 55.5,109.5C 55.4573,108.584 55.1239,107.917 54.5,107.5C 54.6199,105.266 54.2865,103.099 53.5,101C 53.6834,99.3164 54.3501,99.1498 55.5,100.5 Z"/></g>
<g><path style="opacity:0.376" fill="#f0f3f6" d="M 37.5,111.5 C 39.4044,111.738 40.7377,112.738 41.5,114.5C 39.5956,114.262 38.2623,113.262 37.5,111.5 Z"/></g>
<g><path style="opacity:1" fill="#c6d5f0" d="M 64.5,111.5 C 65.9403,112.363 67.2736,112.363 68.5,111.5C 69.4287,112.689 69.762,114.022 69.5,115.5C 65.7802,115.436 62.1135,114.936 58.5,114C 57.944,113.617 57.6107,113.117 57.5,112.5C 59.6074,111.532 61.9407,111.198 64.5,111.5 Z"/></g>
<g><path style="opacity:1" fill="#ced7f2" d="M 71.5,109.5 C 71.62,110.586 72.2867,111.253 73.5,111.5C 75.6924,111.243 77.3591,110.243 78.5,108.5C 80.597,110.482 83.2637,111.482 86.5,111.5C 86.5,111.833 86.5,112.167 86.5,112.5C 84.3721,114.403 82.0387,116.069 79.5,117.5C 78.7542,118.736 78.4208,120.07 78.5,121.5C 77.8333,121.5 77.1667,121.5 76.5,121.5C 69.6723,119.378 62.6723,118.378 55.5,118.5C 55.8212,116.952 56.8212,116.285 58.5,116.5C 61.0661,116.344 63.5661,116.678 66,117.5C 67.4595,117.192 68.6261,116.525 69.5,115.5C 69.762,114.022 69.4287,112.689 68.5,111.5C 67.2736,112.363 65.9403,112.363 64.5,111.5C 65.5045,110.317 66.3378,108.984 67,107.5C 68.049,109.107 69.549,109.773 71.5,109.5 Z"/></g>
<g><path style="opacity:0.998" fill="#ccd7f2" d="M 49.5,108.5 C 50.795,109.488 52.1283,110.488 53.5,111.5C 53.5,112.167 53.8333,112.5 54.5,112.5C 49.4646,113.835 49.4646,115.001 54.5,116C 52.8807,116.236 51.8807,117.069 51.5,118.5C 51.5,118.833 51.5,119.167 51.5,119.5C 50.8333,118.833 50.1667,118.167 49.5,117.5C 47.5439,116.508 45.5439,115.508 43.5,114.5C 43.5,113.833 43.5,113.167 43.5,112.5C 44.675,112.719 45.675,112.386 46.5,111.5C 46.3764,110.893 46.0431,110.56 45.5,110.5C 45.5,110.167 45.5,109.833 45.5,109.5C 46.5676,108.566 47.901,108.232 49.5,108.5 Z"/></g>
<g><path style="opacity:0.702" fill="#e0e3f0" d="M 41.5,114.5 C 42.1667,114.5 42.8333,114.5 43.5,114.5C 45.5439,115.508 47.5439,116.508 49.5,117.5C 48.5,117.5 47.5,117.5 46.5,117.5C 44.326,117.25 42.6594,116.25 41.5,114.5 Z"/></g>
<g><path style="opacity:1" fill="#cfd8f1" d="M 93.5,108.5 C 93.5,109.167 93.5,109.833 93.5,110.5C 94.209,111.404 95.209,111.737 96.5,111.5C 96.5,111.833 96.5,112.167 96.5,112.5C 92.1611,114.324 88.4944,117.157 85.5,121C 86.3079,122.706 87.6412,123.539 89.5,123.5C 90.4016,119.264 93.0682,116.598 97.5,115.5C 97.5,116.167 97.8333,116.5 98.5,116.5C 97.8333,117.5 97.1667,118.5 96.5,119.5C 95.448,119.351 94.448,119.517 93.5,120C 92.6006,121.652 91.6006,123.152 90.5,124.5C 89.3052,124.678 88.1385,125.011 87,125.5C 85.2509,125.252 84.4176,124.252 84.5,122.5C 83.4107,120.883 81.744,120.05 79.5,120C 81.1012,119.727 82.6012,119.227 84,118.5C 85.1217,116.376 86.6217,114.543 88.5,113C 87.9056,112.536 87.2389,112.369 86.5,112.5C 86.5,112.167 86.5,111.833 86.5,111.5C 86.5,110.833 86.5,110.167 86.5,109.5C 88.6914,107.647 91.0248,107.313 93.5,108.5 Z"/></g>
<g><path style="opacity:1" fill="#c6d0ed" d="M 86.5,112.5 C 87.2389,112.369 87.9056,112.536 88.5,113C 86.6217,114.543 85.1217,116.376 84,118.5C 82.6012,119.227 81.1012,119.727 79.5,120C 81.744,120.05 83.4107,120.883 84.5,122.5C 82.047,122.356 80.047,122.022 78.5,121.5C 78.4208,120.07 78.7542,118.736 79.5,117.5C 82.0387,116.069 84.3721,114.403 86.5,112.5 Z"/></g>
<g><path style="opacity:0.431" fill="#f1f4f9" d="M 46.5,117.5 C 47.5,117.5 48.5,117.5 49.5,117.5C 50.1667,118.167 50.8333,118.833 51.5,119.5C 51.5,120.167 51.5,120.833 51.5,121.5C 49.6115,120.396 47.9448,119.063 46.5,117.5 Z"/></g>
<g><path style="opacity:0.957" fill="#bbbfd6" d="M 51.5,118.5 C 52.8333,119.167 53.8333,120.167 54.5,121.5C 54.5,122.167 54.1667,122.5 53.5,122.5C 52.8333,122.5 52.1667,122.5 51.5,122.5C 51.5,122.167 51.5,121.833 51.5,121.5C 51.5,120.833 51.5,120.167 51.5,119.5C 51.5,119.167 51.5,118.833 51.5,118.5 Z"/></g>
<g><path style="opacity:1" fill="#cdd5f4" d="M 54.5,112.5 C 55.8333,113.833 57.1667,115.167 58.5,116.5C 56.8212,116.285 55.8212,116.952 55.5,118.5C 60.6291,120.137 65.9624,121.47 71.5,122.5C 70.209,122.263 69.209,122.596 68.5,123.5C 63.9035,122.618 59.2368,121.951 54.5,121.5C 53.8333,120.167 52.8333,119.167 51.5,118.5C 51.8807,117.069 52.8807,116.236 54.5,116C 49.4646,115.001 49.4646,113.835 54.5,112.5 Z"/></g>
<g><path style="opacity:1" fill="#dddffb" d="M 55.5,118.5 C 62.6723,118.378 69.6723,119.378 76.5,121.5C 75.0813,122.451 73.4147,122.784 71.5,122.5C 65.9624,121.47 60.6291,120.137 55.5,118.5 Z"/></g>
<g><path style="opacity:1" fill="#ccd5f1" d="M 76.5,121.5 C 77.1667,121.5 77.8333,121.5 78.5,121.5C 80.047,122.022 82.047,122.356 84.5,122.5C 84.4176,124.252 85.2509,125.252 87,125.5C 88.1385,125.011 89.3052,124.678 90.5,124.5C 89.4154,126.587 87.7488,127.92 85.5,128.5C 84.791,127.596 83.791,127.263 82.5,127.5C 79.4255,124.135 76.0922,123.801 72.5,126.5C 69.5,126.5 66.5,126.5 63.5,126.5C 62.8333,126.5 62.5,126.167 62.5,125.5C 65.5719,125.817 68.5719,125.484 71.5,124.5C 70.675,123.614 69.675,123.281 68.5,123.5C 69.209,122.596 70.209,122.263 71.5,122.5C 73.4147,122.784 75.0813,122.451 76.5,121.5 Z"/></g>
<g><path style="opacity:0.11" fill="#eff0f8" d="M 96.5,120.5 C 96.0679,121.71 95.4013,122.71 94.5,123.5C 94.2852,121.821 94.9519,120.821 96.5,120.5 Z"/></g>
<g><path style="opacity:1" fill="#d7def7" d="M 54.5,121.5 C 59.2368,121.951 63.9035,122.618 68.5,123.5C 69.675,123.281 70.675,123.614 71.5,124.5C 68.5719,125.484 65.5719,125.817 62.5,125.5C 59.145,125.31 56.145,124.31 53.5,122.5C 54.1667,122.5 54.5,122.167 54.5,121.5 Z"/></g>
<g><path style="opacity:0.935" fill="#cfd4e3" d="M 51.5,122.5 C 52.1667,122.5 52.8333,122.5 53.5,122.5C 56.145,124.31 59.145,125.31 62.5,125.5C 62.5,126.167 62.8333,126.5 63.5,126.5C 63.5,127.167 63.5,127.833 63.5,128.5C 63.5,128.833 63.5,129.167 63.5,129.5C 58.5499,128.695 54.5499,126.362 51.5,122.5 Z"/></g>
<g><path style="opacity:1" fill="#c1d3f1" d="M 82.5,127.5 C 81.0821,129.308 79.0821,129.975 76.5,129.5C 76.5,128.5 76.5,127.5 76.5,126.5C 75.1667,126.5 73.8333,126.5 72.5,126.5C 76.0922,123.801 79.4255,124.135 82.5,127.5 Z"/></g>
<g><path style="opacity:0.788" fill="#dee2f0" d="M 96.5,119.5 C 96.5,119.833 96.5,120.167 96.5,120.5C 94.9519,120.821 94.2852,121.821 94.5,123.5C 92.6327,128.037 89.2993,130.704 84.5,131.5C 84.2627,130.209 84.596,129.209 85.5,128.5C 87.7488,127.92 89.4154,126.587 90.5,124.5C 91.6006,123.152 92.6006,121.652 93.5,120C 94.448,119.517 95.448,119.351 96.5,119.5 Z"/></g>
<g><path style="opacity:0.999" fill="#bdcae9" d="M 63.5,126.5 C 66.5,126.5 69.5,126.5 72.5,126.5C 73.8333,126.5 75.1667,126.5 76.5,126.5C 76.5,127.5 76.5,128.5 76.5,129.5C 72.1578,129.261 67.8244,128.927 63.5,128.5C 63.5,127.833 63.5,127.167 63.5,126.5 Z"/></g>
<g><path style="opacity:0.984" fill="#c4d0e6" d="M 82.5,127.5 C 83.791,127.263 84.791,127.596 85.5,128.5C 84.596,129.209 84.2627,130.209 84.5,131.5C 84.5,132.167 84.1667,132.5 83.5,132.5C 77.3914,130.915 71.058,129.915 64.5,129.5C 64.1667,129.5 63.8333,129.5 63.5,129.5C 63.5,129.167 63.5,128.833 63.5,128.5C 67.8244,128.927 72.1578,129.261 76.5,129.5C 79.0821,129.975 81.0821,129.308 82.5,127.5 Z"/></g>
<g><path style="opacity:0.367" fill="#dadfea" d="M 64.5,129.5 C 71.058,129.915 77.3914,130.915 83.5,132.5C 76.8146,132.872 70.4813,131.872 64.5,129.5 Z"/></g>
</svg>
